<?xml version="1.0"?>
<VTKFile type="PolyData" version="0.1" byte_order="LittleEndian" header_type="UInt32">
  <PolyData>
    <Piece NumberOfPoints="1152" NumberOfVerts="0" NumberOfLines="0" NumberOfStrips="0" NumberOfPolys="2304">
      <Points>
        <DataArray type="Float32" NumberOfComponents="3" format="ascii">
          1.350000 0.000000 0.000000 1.338074 0.000000 0.090587 1.303109 0.000000 0.175000 1.247487 0.000000 0.247487 1.175000 0.000000 0.303109 1.090587 0.000000 0.338074 1.000000 0.000000 0.350000 0.909413 0.000000 0.338074 0.825000 0.000000 0.303109 0.752513 0.000000 0.247487 0.696891 0.000000 0.175000 0.661926 0.000000 0.090587 0.650000 0.000000 0.000000 0.661926 0.000000 -0.090587 0.696891 0.000000 -0.175000 0.752513 0.000000 -0.247487 0.825000 0.000000 -0.303109 0.909413 0.000000 -0.338074 1.000000 0.000000 -0.350000 1.090587 0.000000 -0.338074 1.175000 0.000000 -0.303109 1.247487 0.000000 -0.247487 1.303109 0.000000 -0.175000 1.338074 0.000000 -0.090587 1.338451 0.176210 0.000000 1.326627 0.174654 0.090587 1.291961 0.170090 0.175000 1.236815 0.162830 0.247487 1.164948 0.153368 0.303109 1.081257 0.142350 0.338074 0.991445 0.130526 0.350000 0.901633 0.118702 0.338074 0.817942 0.107684 0.303109 0.746075 0.098223 0.247487 0.690929 0.090963 0.175000 0.656263 0.086399 0.090587 0.644439 0.084842 0.000000 0.656263 0.086399 -0.090587 0.690929 0.090963 -0.175000 0.746075 0.098223 -0.247487 0.817942 0.107684 -0.303109 0.901633 0.118702 -0.338074 0.991445 0.130526 -0.350000 1.081257 0.142350 -0.338074 1.164948 0.153368 -0.303109 1.236815 0.162830 -0.247487 1.291961 0.170090 -0.175000 1.326627 0.174654 -0.090587 1.304000 0.349406 0.000000 1.292480 0.346319 0.090587 1.258707 0.337269 0.175000 1.204980 0.322873 0.247487 1.134963 0.304112 0.303109 1.053426 0.282265 0.338074 0.965926 0.258819 0.350000 0.878426 0.235373 0.338074 0.796889 0.213526 0.303109 0.726871 0.194765 0.247487 0.673145 0.180369 0.175000 0.639371 0.171319 0.090587 0.627852 0.168232 0.000000 0.639371 0.171319 -0.090587 0.673145 0.180369 -0.175000 0.726871 0.194765 -0.247487 0.796889 0.213526 -0.303109 0.878426 0.235373 -0.338074 0.965926 0.258819 -0.350000 1.053426 0.282265 -0.338074 1.134963 0.304112 -0.303109 1.204980 0.322873 -0.247487 1.258707 0.337269 -0.175000 1.292480 0.346319 -0.090587 1.247237 0.516623 0.000000 1.236219 0.512059 0.090587 1.203916 0.498678 0.175000 1.152528 0.477393 0.247487 1.085558 0.449653 0.303109 1.007571 0.417349 0.338074 0.923880 0.382683 0.350000 0.840188 0.348017 0.338074 0.762201 0.315714 0.303109 0.695231 0.287974 0.247487 0.643843 0.266689 0.175000 0.611540 0.253308 0.090587 0.600522 0.248744 0.000000 0.611540 0.253308 -0.090587 0.643843 0.266689 -0.175000 0.695231 0.287974 -0.247487 0.762201 0.315714 -0.303109 0.840188 0.348017 -0.338074 0.923880 0.382683 -0.350000 1.007571 0.417349 -0.338074 1.085558 0.449653 -0.303109 1.152528 0.477393 -0.247487 1.203916 0.498678 -0.175000 1.236219 0.512059 -0.090587 1.169134 0.675000 0.000000 1.158806 0.669037 0.090587 1.128525 0.651554 0.175000 1.080356 0.623744 0.247487 1.017580 0.587500 0.303109 0.944476 0.545293 0.338074 0.866025 0.500000 0.350000 0.787575 0.454707 0.338074 0.714471 0.412500 0.303109 0.651695 0.376256 0.247487 0.603525 0.348446 0.175000 0.573245 0.330963 0.090587 0.562917 0.325000 0.000000 0.573245 0.330963 -0.090587 0.603525 0.348446 -0.175000 0.651695 0.376256 -0.247487 0.714471 0.412500 -0.303109 0.787575 0.454707 -0.338074 0.866025 0.500000 -0.350000 0.944476 0.545293 -0.338074 1.017580 0.587500 -0.303109 1.080356 0.623744 -0.247487 1.128525 0.651554 -0.175000 1.158806 0.669037 -0.090587 1.071027 0.821828 0.000000 1.061566 0.814568 0.090587 1.033826 0.793282 0.175000 0.989698 0.759422 0.247487 0.932190 0.715295 0.303109 0.865221 0.663907 0.338074 0.793353 0.608761 0.350000 0.721486 0.553616 0.338074 0.654517 0.502228 0.303109 0.597008 0.458101 0.247487 0.552881 0.424240 0.175000 0.525141 0.402955 0.090587 0.515680 0.395695 0.000000 0.525141 0.402955 -0.090587 0.552881 0.424240 -0.175000 0.597008 0.458101 -0.247487 0.654517 0.502228 -0.303109 0.721486 0.553616 -0.338074 0.793353 0.608761 -0.350000 0.865221 0.663907 -0.338074 0.932190 0.715295 -0.303109 0.989698 0.759422 -0.247487 1.033826 0.793282 -0.175000 1.061566 0.814568 -0.090587 0.954594 0.954594 0.000000 0.946161 0.946161 0.090587 0.921437 0.921437 0.175000 0.882107 0.882107 0.247487 0.830850 0.830850 0.303109 0.771161 0.771161 0.338074 0.707107 0.707107 0.350000 0.643052 0.643052 0.338074 0.583363 0.583363 0.303109 0.532107 0.532107 0.247487 0.492776 0.492776 0.175000 0.468052 0.468052 0.090587 0.459619 0.459619 0.000000 0.468052 0.468052 -0.090587 0.492776 0.492776 -0.175000 0.532107 0.532107 -0.247487 0.583363 0.583363 -0.303109 0.643052 0.643052 -0.338074 0.707107 0.707107 -0.350000 0.771161 0.771161 -0.338074 0.830850 0.830850 -0.303109 0.882107 0.882107 -0.247487 0.921437 0.921437 -0.175000 0.946161 0.946161 -0.090587 0.821828 1.071027 0.000000 0.814568 1.061566 0.090587 0.793282 1.033826 0.175000 0.759422 0.989698 0.247487 0.715295 0.932190 0.303109 0.663907 0.865221 0.338074 0.608761 0.793353 0.350000 0.553616 0.721486 0.338074 0.502228 0.654517 0.303109 0.458101 0.597008 0.247487 0.424240 0.552881 0.175000 0.402955 0.525141 0.090587 0.395695 0.515680 0.000000 0.402955 0.525141 -0.090587 0.424240 0.552881 -0.175000 0.458101 0.597008 -0.247487 0.502228 0.654517 -0.303109 0.553616 0.721486 -0.338074 0.608761 0.793353 -0.350000 0.663907 0.865221 -0.338074 0.715295 0.932190 -0.303109 0.759422 0.989698 -0.247487 0.793282 1.033826 -0.175000 0.814568 1.061566 -0.090587 0.675000 1.169134 0.000000 0.669037 1.158806 0.090587 0.651554 1.128525 0.175000 0.623744 1.080356 0.247487 0.587500 1.017580 0.303109 0.545293 0.944476 0.338074 0.500000 0.866025 0.350000 0.454707 0.787575 0.338074 0.412500 0.714471 0.303109 0.376256 0.651695 0.247487 0.348446 0.603525 0.175000 0.330963 0.573245 0.090587 0.325000 0.562917 0.000000 0.330963 0.573245 -0.090587 0.348446 0.603525 -0.175000 0.376256 0.651695 -0.247487 0.412500 0.714471 -0.303109 0.454707 0.787575 -0.338074 0.500000 0.866025 -0.350000 0.545293 0.944476 -0.338074 0.587500 1.017580 -0.303109 0.623744 1.080356 -0.247487 0.651554 1.128525 -0.175000 0.669037 1.158806 -0.090587 0.516623 1.247237 0.000000 0.512059 1.236219 0.090587 0.498678 1.203916 0.175000 0.477393 1.152528 0.247487 0.449653 1.085558 0.303109 0.417349 1.007571 0.338074 0.382683 0.923880 0.350000 0.348017 0.840188 0.338074 0.315714 0.762201 0.303109 0.287974 0.695231 0.247487 0.266689 0.643843 0.175000 0.253308 0.611540 0.090587 0.248744 0.600522 0.000000 0.253308 0.611540 -0.090587 0.266689 0.643843 -0.175000 0.287974 0.695231 -0.247487 0.315714 0.762201 -0.303109 0.348017 0.840188 -0.338074 0.382683 0.923880 -0.350000 0.417349 1.007571 -0.338074 0.449653 1.085558 -0.303109 0.477393 1.152528 -0.247487 0.498678 1.203916 -0.175000 0.512059 1.236219 -0.090587 0.349406 1.304000 0.000000 0.346319 1.292480 0.090587 0.337269 1.258707 0.175000 0.322873 1.204980 0.247487 0.304112 1.134963 0.303109 0.282265 1.053426 0.338074 0.258819 0.965926 0.350000 0.235373 0.878426 0.338074 0.213526 0.796889 0.303109 0.194765 0.726871 0.247487 0.180369 0.673145 0.175000 0.171319 0.639371 0.090587 0.168232 0.627852 0.000000 0.171319 0.639371 -0.090587 0.180369 0.673145 -0.175000 0.194765 0.726871 -0.247487 0.213526 0.796889 -0.303109 0.235373 0.878426 -0.338074 0.258819 0.965926 -0.350000 0.282265 1.053426 -0.338074 0.304112 1.134963 -0.303109 0.322873 1.204980 -0.247487 0.337269 1.258707 -0.175000 0.346319 1.292480 -0.090587 0.176210 1.338451 0.000000 0.174654 1.326627 0.090587 0.170090 1.291961 0.175000 0.162830 1.236815 0.247487 0.153368 1.164948 0.303109 0.142350 1.081257 0.338074 0.130526 0.991445 0.350000 0.118702 0.901633 0.338074 0.107684 0.817942 0.303109 0.098223 0.746075 0.247487 0.090963 0.690929 0.175000 0.086399 0.656263 0.090587 0.084842 0.644439 0.000000 0.086399 0.656263 -0.090587 0.090963 0.690929 -0.175000 0.098223 0.746075 -0.247487 0.107684 0.817942 -0.303109 0.118702 0.901633 -0.338074 0.130526 0.991445 -0.350000 0.142350 1.081257 -0.338074 0.153368 1.164948 -0.303109 0.162830 1.236815 -0.247487 0.170090 1.291961 -0.175000 0.174654 1.326627 -0.090587 0.000000 1.350000 0.000000 0.000000 1.338074 0.090587 0.000000 1.303109 0.175000 0.000000 1.247487 0.247487 0.000000 1.175000 0.303109 0.000000 1.090587 0.338074 0.000000 1.000000 0.350000 0.000000 0.909413 0.338074 0.000000 0.825000 0.303109 0.000000 0.752513 0.247487 0.000000 0.696891 0.175000 0.000000 0.661926 0.090587 0.000000 0.650000 0.000000 0.000000 0.661926 -0.090587 0.000000 0.696891 -0.175000 0.000000 0.752513 -0.247487 0.000000 0.825000 -0.303109 0.000000 0.909413 -0.338074 0.000000 1.000000 -0.350000 0.000000 1.090587 -0.338074 0.000000 1.175000 -0.303109 0.000000 1.247487 -0.247487 0.000000 1.303109 -0.175000 0.000000 1.338074 -0.090587 -0.176210 1.338451 0.000000 -0.174654 1.326627 0.090587 -0.170090 1.291961 0.175000 -0.162830 1.236815 0.247487 -0.153368 1.164948 0.303109 -0.142350 1.081257 0.338074 -0.130526 0.991445 0.350000 -0.118702 0.901633 0.338074 -0.107684 0.817942 0.303109 -0.098223 0.746075 0.247487 -0.090963 0.690929 0.175000 -0.086399 0.656263 0.090587 -0.084842 0.644439 0.000000 -0.086399 0.656263 -0.090587 -0.090963 0.690929 -0.175000 -0.098223 0.746075 -0.247487 -0.107684 0.817942 -0.303109 -0.118702 0.901633 -0.338074 -0.130526 0.991445 -0.350000 -0.142350 1.081257 -0.338074 -0.153368 1.164948 -0.303109 -0.162830 1.236815 -0.247487 -0.170090 1.291961 -0.175000 -0.174654 1.326627 -0.090587 -0.349406 1.304000 0.000000 -0.346319 1.292480 0.090587 -0.337269 1.258707 0.175000 -0.322873 1.204980 0.247487 -0.304112 1.134963 0.303109 -0.282265 1.053426 0.338074 -0.258819 0.965926 0.350000 -0.235373 0.878426 0.338074 -0.213526 0.796889 0.303109 -0.194765 0.726871 0.247487 -0.180369 0.673145 0.175000 -0.171319 0.639371 0.090587 -0.168232 0.627852 0.000000 -0.171319 0.639371 -0.090587 -0.180369 0.673145 -0.175000 -0.194765 0.726871 -0.247487 -0.213526 0.796889 -0.303109 -0.235373 0.878426 -0.338074 -0.258819 0.965926 -0.350000 -0.282265 1.053426 -0.338074 -0.304112 1.134963 -0.303109 -0.322873 1.204980 -0.247487 -0.337269 1.258707 -0.175000 -0.346319 1.292480 -0.090587 -0.516623 1.247237 0.000000 -0.512059 1.236219 0.090587 -0.498678 1.203916 0.175000 -0.477393 1.152528 0.247487 -0.449653 1.085558 0.303109 -0.417349 1.007571 0.338074 -0.382683 0.923880 0.350000 -0.348017 0.840188 0.338074 -0.315714 0.762201 0.303109 -0.287974 0.695231 0.247487 -0.266689 0.643843 0.175000 -0.253308 0.611540 0.090587 -0.248744 0.600522 0.000000 -0.253308 0.611540 -0.090587 -0.266689 0.643843 -0.175000 -0.287974 0.695231 -0.247487 -0.315714 0.762201 -0.303109 -0.348017 0.840188 -0.338074 -0.382683 0.923880 -0.350000 -0.417349 1.007571 -0.338074 -0.449653 1.085558 -0.303109 -0.477393 1.152528 -0.247487 -0.498678 1.203916 -0.175000 -0.512059 1.236219 -0.090587 -0.675000 1.169134 0.000000 -0.669037 1.158806 0.090587 -0.651554 1.128525 0.175000 -0.623744 1.080356 0.247487 -0.587500 1.017580 0.303109 -0.545293 0.944476 0.338074 -0.500000 0.866025 0.350000 -0.454707 0.787575 0.338074 -0.412500 0.714471 0.303109 -0.376256 0.651695 0.247487 -0.348446 0.603525 0.175000 -0.330963 0.573245 0.090587 -0.325000 0.562917 0.000000 -0.330963 0.573245 -0.090587 -0.348446 0.603525 -0.175000 -0.376256 0.651695 -0.247487 -0.412500 0.714471 -0.303109 -0.454707 0.787575 -0.338074 -0.500000 0.866025 -0.350000 -0.545293 0.944476 -0.338074 -0.587500 1.017580 -0.303109 -0.623744 1.080356 -0.247487 -0.651554 1.128525 -0.175000 -0.669037 1.158806 -0.090587 -0.821828 1.071027 0.000000 -0.814568 1.061566 0.090587 -0.793282 1.033826 0.175000 -0.759422 0.989698 0.247487 -0.715295 0.932190 0.303109 -0.663907 0.865221 0.338074 -0.608761 0.793353 0.350000 -0.553616 0.721486 0.338074 -0.502228 0.654517 0.303109 -0.458101 0.597008 0.247487 -0.424240 0.552881 0.175000 -0.402955 0.525141 0.090587 -0.395695 0.515680 0.000000 -0.402955 0.525141 -0.090587 -0.424240 0.552881 -0.175000 -0.458101 0.597008 -0.247487 -0.502228 0.654517 -0.303109 -0.553616 0.721486 -0.338074 -0.608761 0.793353 -0.350000 -0.663907 0.865221 -0.338074 -0.715295 0.932190 -0.303109 -0.759422 0.989698 -0.247487 -0.793282 1.033826 -0.175000 -0.814568 1.061566 -0.090587 -0.954594 0.954594 0.000000 -0.946161 0.946161 0.090587 -0.921437 0.921437 0.175000 -0.882107 0.882107 0.247487 -0.830850 0.830850 0.303109 -0.771161 0.771161 0.338074 -0.707107 0.707107 0.350000 -0.643052 0.643052 0.338074 -0.583363 0.583363 0.303109 -0.532107 0.532107 0.247487 -0.492776 0.492776 0.175000 -0.468052 0.468052 0.090587 -0.459619 0.459619 0.000000 -0.468052 0.468052 -0.090587 -0.492776 0.492776 -0.175000 -0.532107 0.532107 -0.247487 -0.583363 0.583363 -0.303109 -0.643052 0.643052 -0.338074 -0.707107 0.707107 -0.350000 -0.771161 0.771161 -0.338074 -0.830850 0.830850 -0.303109 -0.882107 0.882107 -0.247487 -0.921437 0.921437 -0.175000 -0.946161 0.946161 -0.090587 -1.071027 0.821828 0.000000 -1.061566 0.814568 0.090587 -1.033826 0.793282 0.175000 -0.989698 0.759422 0.247487 -0.932190 0.715295 0.303109 -0.865221 0.663907 0.338074 -0.793353 0.608761 0.350000 -0.721486 0.553616 0.338074 -0.654517 0.502228 0.303109 -0.597008 0.458101 0.247487 -0.552881 0.424240 0.175000 -0.525141 0.402955 0.090587 -0.515680 0.395695 0.000000 -0.525141 0.402955 -0.090587 -0.552881 0.424240 -0.175000 -0.597008 0.458101 -0.247487 -0.654517 0.502228 -0.303109 -0.721486 0.553616 -0.338074 -0.793353 0.608761 -0.350000 -0.865221 0.663907 -0.338074 -0.932190 0.715295 -0.303109 -0.989698 0.759422 -0.247487 -1.033826 0.793282 -0.175000 -1.061566 0.814568 -0.090587 -1.169134 0.675000 0.000000 -1.158806 0.669037 0.090587 -1.128525 0.651554 0.175000 -1.080356 0.623744 0.247487 -1.017580 0.587500 0.303109 -0.944476 0.545293 0.338074 -0.866025 0.500000 0.350000 -0.787575 0.454707 0.338074 -0.714471 0.412500 0.303109 -0.651695 0.376256 0.247487 -0.603525 0.348446 0.175000 -0.573245 0.330963 0.090587 -0.562917 0.325000 0.000000 -0.573245 0.330963 -0.090587 -0.603525 0.348446 -0.175000 -0.651695 0.376256 -0.247487 -0.714471 0.412500 -0.303109 -0.787575 0.454707 -0.338074 -0.866025 0.500000 -0.350000 -0.944476 0.545293 -0.338074 -1.017580 0.587500 -0.303109 -1.080356 0.623744 -0.247487 -1.128525 0.651554 -0.175000 -1.158806 0.669037 -0.090587 -1.247237 0.516623 0.000000 -1.236219 0.512059 0.090587 -1.203916 0.498678 0.175000 -1.152528 0.477393 0.247487 -1.085558 0.449653 0.303109 -1.007571 0.417349 0.338074 -0.923880 0.382683 0.350000 -0.840188 0.348017 0.338074 -0.762201 0.315714 0.303109 -0.695231 0.287974 0.247487 -0.643843 0.266689 0.175000 -0.611540 0.253308 0.090587 -0.600522 0.248744 0.000000 -0.611540 0.253308 -0.090587 -0.643843 0.266689 -0.175000 -0.695231 0.287974 -0.247487 -0.762201 0.315714 -0.303109 -0.840188 0.348017 -0.338074 -0.923880 0.382683 -0.350000 -1.007571 0.417349 -0.338074 -1.085558 0.449653 -0.303109 -1.152528 0.477393 -0.247487 -1.203916 0.498678 -0.175000 -1.236219 0.512059 -0.090587 -1.304000 0.349406 0.000000 -1.292480 0.346319 0.090587 -1.258707 0.337269 0.175000 -1.204980 0.322873 0.247487 -1.134963 0.304112 0.303109 -1.053426 0.282265 0.338074 -0.965926 0.258819 0.350000 -0.878426 0.235373 0.338074 -0.796889 0.213526 0.303109 -0.726871 0.194765 0.247487 -0.673145 0.180369 0.175000 -0.639371 0.171319 0.090587 -0.627852 0.168232 0.000000 -0.639371 0.171319 -0.090587 -0.673145 0.180369 -0.175000 -0.726871 0.194765 -0.247487 -0.796889 0.213526 -0.303109 -0.878426 0.235373 -0.338074 -0.965926 0.258819 -0.350000 -1.053426 0.282265 -0.338074 -1.134963 0.304112 -0.303109 -1.204980 0.322873 -0.247487 -1.258707 0.337269 -0.175000 -1.292480 0.346319 -0.090587 -1.338451 0.176210 0.000000 -1.326627 0.174654 0.090587 -1.291961 0.170090 0.175000 -1.236815 0.162830 0.247487 -1.164948 0.153368 0.303109 -1.081257 0.142350 0.338074 -0.991445 0.130526 0.350000 -0.901633 0.118702 0.338074 -0.817942 0.107684 0.303109 -0.746075 0.098223 0.247487 -0.690929 0.090963 0.175000 -0.656263 0.086399 0.090587 -0.644439 0.084842 0.000000 -0.656263 0.086399 -0.090587 -0.690929 0.090963 -0.175000 -0.746075 0.098223 -0.247487 -0.817942 0.107684 -0.303109 -0.901633 0.118702 -0.338074 -0.991445 0.130526 -0.350000 -1.081257 0.142350 -0.338074 -1.164948 0.153368 -0.303109 -1.236815 0.162830 -0.247487 -1.291961 0.170090 -0.175000 -1.326627 0.174654 -0.090587 -1.350000 0.000000 0.000000 -1.338074 0.000000 0.090587 -1.303109 0.000000 0.175000 -1.247487 0.000000 0.247487 -1.175000 0.000000 0.303109 -1.090587 0.000000 0.338074 -1.000000 0.000000 0.350000 -0.909413 0.000000 0.338074 -0.825000 0.000000 0.303109 -0.752513 0.000000 0.247487 -0.696891 0.000000 0.175000 -0.661926 0.000000 0.090587 -0.650000 0.000000 0.000000 -0.661926 0.000000 -0.090587 -0.696891 0.000000 -0.175000 -0.752513 0.000000 -0.247487 -0.825000 0.000000 -0.303109 -0.909413 0.000000 -0.338074 -1.000000 0.000000 -0.350000 -1.090587 0.000000 -0.338074 -1.175000 0.000000 -0.303109 -1.247487 0.000000 -0.247487 -1.303109 0.000000 -0.175000 -1.338074 0.000000 -0.090587 -1.338451 -0.176210 0.000000 -1.326627 -0.174654 0.090587 -1.291961 -0.170090 0.175000 -1.236815 -0.162830 0.247487 -1.164948 -0.153368 0.303109 -1.081257 -0.142350 0.338074 -0.991445 -0.130526 0.350000 -0.901633 -0.118702 0.338074 -0.817942 -0.107684 0.303109 -0.746075 -0.098223 0.247487 -0.690929 -0.090963 0.175000 -0.656263 -0.086399 0.090587 -0.644439 -0.084842 0.000000 -0.656263 -0.086399 -0.090587 -0.690929 -0.090963 -0.175000 -0.746075 -0.098223 -0.247487 -0.817942 -0.107684 -0.303109 -0.901633 -0.118702 -0.338074 -0.991445 -0.130526 -0.350000 -1.081257 -0.142350 -0.338074 -1.164948 -0.153368 -0.303109 -1.236815 -0.162830 -0.247487 -1.291961 -0.170090 -0.175000 -1.326627 -0.174654 -0.090587 -1.304000 -0.349406 0.000000 -1.292480 -0.346319 0.090587 -1.258707 -0.337269 0.175000 -1.204980 -0.322873 0.247487 -1.134963 -0.304112 0.303109 -1.053426 -0.282265 0.338074 -0.965926 -0.258819 0.350000 -0.878426 -0.235373 0.338074 -0.796889 -0.213526 0.303109 -0.726871 -0.194765 0.247487 -0.673145 -0.180369 0.175000 -0.639371 -0.171319 0.090587 -0.627852 -0.168232 0.000000 -0.639371 -0.171319 -0.090587 -0.673145 -0.180369 -0.175000 -0.726871 -0.194765 -0.247487 -0.796889 -0.213526 -0.303109 -0.878426 -0.235373 -0.338074 -0.965926 -0.258819 -0.350000 -1.053426 -0.282265 -0.338074 -1.134963 -0.304112 -0.303109 -1.204980 -0.322873 -0.247487 -1.258707 -0.337269 -0.175000 -1.292480 -0.346319 -0.090587 -1.247237 -0.516623 0.000000 -1.236219 -0.512059 0.090587 -1.203916 -0.498678 0.175000 -1.152528 -0.477393 0.247487 -1.085558 -0.449653 0.303109 -1.007571 -0.417349 0.338074 -0.923880 -0.382683 0.350000 -0.840188 -0.348017 0.338074 -0.762201 -0.315714 0.303109 -0.695231 -0.287974 0.247487 -0.643843 -0.266689 0.175000 -0.611540 -0.253308 0.090587 -0.600522 -0.248744 0.000000 -0.611540 -0.253308 -0.090587 -0.643843 -0.266689 -0.175000 -0.695231 -0.287974 -0.247487 -0.762201 -0.315714 -0.303109 -0.840188 -0.348017 -0.338074 -0.923880 -0.382683 -0.350000 -1.007571 -0.417349 -0.338074 -1.085558 -0.449653 -0.303109 -1.152528 -0.477393 -0.247487 -1.203916 -0.498678 -0.175000 -1.236219 -0.512059 -0.090587 -1.169134 -0.675000 0.000000 -1.158806 -0.669037 0.090587 -1.128525 -0.651554 0.175000 -1.080356 -0.623744 0.247487 -1.017580 -0.587500 0.303109 -0.944476 -0.545293 0.338074 -0.866025 -0.500000 0.350000 -0.787575 -0.454707 0.338074 -0.714471 -0.412500 0.303109 -0.651695 -0.376256 0.247487 -0.603525 -0.348446 0.175000 -0.573245 -0.330963 0.090587 -0.562917 -0.325000 0.000000 -0.573245 -0.330963 -0.090587 -0.603525 -0.348446 -0.175000 -0.651695 -0.376256 -0.247487 -0.714471 -0.412500 -0.303109 -0.787575 -0.454707 -0.338074 -0.866025 -0.500000 -0.350000 -0.944476 -0.545293 -0.338074 -1.017580 -0.587500 -0.303109 -1.080356 -0.623744 -0.247487 -1.128525 -0.651554 -0.175000 -1.158806 -0.669037 -0.090587 -1.071027 -0.821828 0.000000 -1.061566 -0.814568 0.090587 -1.033826 -0.793282 0.175000 -0.989698 -0.759422 0.247487 -0.932190 -0.715295 0.303109 -0.865221 -0.663907 0.338074 -0.793353 -0.608761 0.350000 -0.721486 -0.553616 0.338074 -0.654517 -0.502228 0.303109 -0.597008 -0.458101 0.247487 -0.552881 -0.424240 0.175000 -0.525141 -0.402955 0.090587 -0.515680 -0.395695 0.000000 -0.525141 -0.402955 -0.090587 -0.552881 -0.424240 -0.175000 -0.597008 -0.458101 -0.247487 -0.654517 -0.502228 -0.303109 -0.721486 -0.553616 -0.338074 -0.793353 -0.608761 -0.350000 -0.865221 -0.663907 -0.338074 -0.932190 -0.715295 -0.303109 -0.989698 -0.759422 -0.247487 -1.033826 -0.793282 -0.175000 -1.061566 -0.814568 -0.090587 -0.954594 -0.954594 0.000000 -0.946161 -0.946161 0.090587 -0.921437 -0.921437 0.175000 -0.882107 -0.882107 0.247487 -0.830850 -0.830850 0.303109 -0.771161 -0.771161 0.338074 -0.707107 -0.707107 0.350000 -0.643052 -0.643052 0.338074 -0.583363 -0.583363 0.303109 -0.532107 -0.532107 0.247487 -0.492776 -0.492776 0.175000 -0.468052 -0.468052 0.090587 -0.459619 -0.459619 0.000000 -0.468052 -0.468052 -0.090587 -0.492776 -0.492776 -0.175000 -0.532107 -0.532107 -0.247487 -0.583363 -0.583363 -0.303109 -0.643052 -0.643052 -0.338074 -0.707107 -0.707107 -0.350000 -0.771161 -0.771161 -0.338074 -0.830850 -0.830850 -0.303109 -0.882107 -0.882107 -0.247487 -0.921437 -0.921437 -0.175000 -0.946161 -0.946161 -0.090587 -0.821828 -1.071027 0.000000 -0.814568 -1.061566 0.090587 -0.793282 -1.033826 0.175000 -0.759422 -0.989698 0.247487 -0.715295 -0.932190 0.303109 -0.663907 -0.865221 0.338074 -0.608761 -0.793353 0.350000 -0.553616 -0.721486 0.338074 -0.502228 -0.654517 0.303109 -0.458101 -0.597008 0.247487 -0.424240 -0.552881 0.175000 -0.402955 -0.525141 0.090587 -0.395695 -0.515680 0.000000 -0.402955 -0.525141 -0.090587 -0.424240 -0.552881 -0.175000 -0.458101 -0.597008 -0.247487 -0.502228 -0.654517 -0.303109 -0.553616 -0.721486 -0.338074 -0.608761 -0.793353 -0.350000 -0.663907 -0.865221 -0.338074 -0.715295 -0.932190 -0.303109 -0.759422 -0.989698 -0.247487 -0.793282 -1.033826 -0.175000 -0.814568 -1.061566 -0.090587 -0.675000 -1.169134 0.000000 -0.669037 -1.158806 0.090587 -0.651554 -1.128525 0.175000 -0.623744 -1.080356 0.247487 -0.587500 -1.017580 0.303109 -0.545293 -0.944476 0.338074 -0.500000 -0.866025 0.350000 -0.454707 -0.787575 0.338074 -0.412500 -0.714471 0.303109 -0.376256 -0.651695 0.247487 -0.348446 -0.603525 0.175000 -0.330963 -0.573245 0.090587 -0.325000 -0.562917 0.000000 -0.330963 -0.573245 -0.090587 -0.348446 -0.603525 -0.175000 -0.376256 -0.651695 -0.247487 -0.412500 -0.714471 -0.303109 -0.454707 -0.787575 -0.338074 -0.500000 -0.866025 -0.350000 -0.545293 -0.944476 -0.338074 -0.587500 -1.017580 -0.303109 -0.623744 -1.080356 -0.247487 -0.651554 -1.128525 -0.175000 -0.669037 -1.158806 -0.090587 -0.516623 -1.247237 0.000000 -0.512059 -1.236219 0.090587 -0.498678 -1.203916 0.175000 -0.477393 -1.152528 0.247487 -0.449653 -1.085558 0.303109 -0.417349 -1.007571 0.338074 -0.382683 -0.923880 0.350000 -0.348017 -0.840188 0.338074 -0.315714 -0.762201 0.303109 -0.287974 -0.695231 0.247487 -0.266689 -0.643843 0.175000 -0.253308 -0.611540 0.090587 -0.248744 -0.600522 0.000000 -0.253308 -0.611540 -0.090587 -0.266689 -0.643843 -0.175000 -0.287974 -0.695231 -0.247487 -0.315714 -0.762201 -0.303109 -0.348017 -0.840188 -0.338074 -0.382683 -0.923880 -0.350000 -0.417349 -1.007571 -0.338074 -0.449653 -1.085558 -0.303109 -0.477393 -1.152528 -0.247487 -0.498678 -1.203916 -0.175000 -0.512059 -1.236219 -0.090587 -0.349406 -1.304000 0.000000 -0.346319 -1.292480 0.090587 -0.337269 -1.258707 0.175000 -0.322873 -1.204980 0.247487 -0.304112 -1.134963 0.303109 -0.282265 -1.053426 0.338074 -0.258819 -0.965926 0.350000 -0.235373 -0.878426 0.338074 -0.213526 -0.796889 0.303109 -0.194765 -0.726871 0.247487 -0.180369 -0.673145 0.175000 -0.171319 -0.639371 0.090587 -0.168232 -0.627852 0.000000 -0.171319 -0.639371 -0.090587 -0.180369 -0.673145 -0.175000 -0.194765 -0.726871 -0.247487 -0.213526 -0.796889 -0.303109 -0.235373 -0.878426 -0.338074 -0.258819 -0.965926 -0.350000 -0.282265 -1.053426 -0.338074 -0.304112 -1.134963 -0.303109 -0.322873 -1.204980 -0.247487 -0.337269 -1.258707 -0.175000 -0.346319 -1.292480 -0.090587 -0.176210 -1.338451 0.000000 -0.174654 -1.326627 0.090587 -0.170090 -1.291961 0.175000 -0.162830 -1.236815 0.247487 -0.153368 -1.164948 0.303109 -0.142350 -1.081257 0.338074 -0.130526 -0.991445 0.350000 -0.118702 -0.901633 0.338074 -0.107684 -0.817942 0.303109 -0.098223 -0.746075 0.247487 -0.090963 -0.690929 0.175000 -0.086399 -0.656263 0.090587 -0.084842 -0.644439 0.000000 -0.086399 -0.656263 -0.090587 -0.090963 -0.690929 -0.175000 -0.098223 -0.746075 -0.247487 -0.107684 -0.817942 -0.303109 -0.118702 -0.901633 -0.338074 -0.130526 -0.991445 -0.350000 -0.142350 -1.081257 -0.338074 -0.153368 -1.164948 -0.303109 -0.162830 -1.236815 -0.247487 -0.170090 -1.291961 -0.175000 -0.174654 -1.326627 -0.090587 -0.000000 -1.350000 0.000000 -0.000000 -1.338074 0.090587 -0.000000 -1.303109 0.175000 -0.000000 -1.247487 0.247487 -0.000000 -1.175000 0.303109 -0.000000 -1.090587 0.338074 -0.000000 -1.000000 0.350000 -0.000000 -0.909413 0.338074 -0.000000 -0.825000 0.303109 -0.000000 -0.752513 0.247487 -0.000000 -0.696891 0.175000 -0.000000 -0.661926 0.090587 -0.000000 -0.650000 0.000000 -0.000000 -0.661926 -0.090587 -0.000000 -0.696891 -0.175000 -0.000000 -0.752513 -0.247487 -0.000000 -0.825000 -0.303109 -0.000000 -0.909413 -0.338074 -0.000000 -1.000000 -0.350000 -0.000000 -1.090587 -0.338074 -0.000000 -1.175000 -0.303109 -0.000000 -1.247487 -0.247487 -0.000000 -1.303109 -0.175000 -0.000000 -1.338074 -0.090587 0.176210 -1.338451 0.000000 0.174654 -1.326627 0.090587 0.170090 -1.291961 0.175000 0.162830 -1.236815 0.247487 0.153368 -1.164948 0.303109 0.142350 -1.081257 0.338074 0.130526 -0.991445 0.350000 0.118702 -0.901633 0.338074 0.107684 -0.817942 0.303109 0.098223 -0.746075 0.247487 0.090963 -0.690929 0.175000 0.086399 -0.656263 0.090587 0.084842 -0.644439 0.000000 0.086399 -0.656263 -0.090587 0.090963 -0.690929 -0.175000 0.098223 -0.746075 -0.247487 0.107684 -0.817942 -0.303109 0.118702 -0.901633 -0.338074 0.130526 -0.991445 -0.350000 0.142350 -1.081257 -0.338074 0.153368 -1.164948 -0.303109 0.162830 -1.236815 -0.247487 0.170090 -1.291961 -0.175000 0.174654 -1.326627 -0.090587 0.349406 -1.304000 0.000000 0.346319 -1.292480 0.090587 0.337269 -1.258707 0.175000 0.322873 -1.204980 0.247487 0.304112 -1.134963 0.303109 0.282265 -1.053426 0.338074 0.258819 -0.965926 0.350000 0.235373 -0.878426 0.338074 0.213526 -0.796889 0.303109 0.194765 -0.726871 0.247487 0.180369 -0.673145 0.175000 0.171319 -0.639371 0.090587 0.168232 -0.627852 0.000000 0.171319 -0.639371 -0.090587 0.180369 -0.673145 -0.175000 0.194765 -0.726871 -0.247487 0.213526 -0.796889 -0.303109 0.235373 -0.878426 -0.338074 0.258819 -0.965926 -0.350000 0.282265 -1.053426 -0.338074 0.304112 -1.134963 -0.303109 0.322873 -1.204980 -0.247487 0.337269 -1.258707 -0.175000 0.346319 -1.292480 -0.090587 0.516623 -1.247237 0.000000 0.512059 -1.236219 0.090587 0.498678 -1.203916 0.175000 0.477393 -1.152528 0.247487 0.449653 -1.085558 0.303109 0.417349 -1.007571 0.338074 0.382683 -0.923880 0.350000 0.348017 -0.840188 0.338074 0.315714 -0.762201 0.303109 0.287974 -0.695231 0.247487 0.266689 -0.643843 0.175000 0.253308 -0.611540 0.090587 0.248744 -0.600522 0.000000 0.253308 -0.611540 -0.090587 0.266689 -0.643843 -0.175000 0.287974 -0.695231 -0.247487 0.315714 -0.762201 -0.303109 0.348017 -0.840188 -0.338074 0.382683 -0.923880 -0.350000 0.417349 -1.007571 -0.338074 0.449653 -1.085558 -0.303109 0.477393 -1.152528 -0.247487 0.498678 -1.203916 -0.175000 0.512059 -1.236219 -0.090587 0.675000 -1.169134 0.000000 0.669037 -1.158806 0.090587 0.651554 -1.128525 0.175000 0.623744 -1.080356 0.247487 0.587500 -1.017580 0.303109 0.545293 -0.944476 0.338074 0.500000 -0.866025 0.350000 0.454707 -0.787575 0.338074 0.412500 -0.714471 0.303109 0.376256 -0.651695 0.247487 0.348446 -0.603525 0.175000 0.330963 -0.573245 0.090587 0.325000 -0.562917 0.000000 0.330963 -0.573245 -0.090587 0.348446 -0.603525 -0.175000 0.376256 -0.651695 -0.247487 0.412500 -0.714471 -0.303109 0.454707 -0.787575 -0.338074 0.500000 -0.866025 -0.350000 0.545293 -0.944476 -0.338074 0.587500 -1.017580 -0.303109 0.623744 -1.080356 -0.247487 0.651554 -1.128525 -0.175000 0.669037 -1.158806 -0.090587 0.821828 -1.071027 0.000000 0.814568 -1.061566 0.090587 0.793282 -1.033826 0.175000 0.759422 -0.989698 0.247487 0.715295 -0.932190 0.303109 0.663907 -0.865221 0.338074 0.608761 -0.793353 0.350000 0.553616 -0.721486 0.338074 0.502228 -0.654517 0.303109 0.458101 -0.597008 0.247487 0.424240 -0.552881 0.175000 0.402955 -0.525141 0.090587 0.395695 -0.515680 0.000000 0.402955 -0.525141 -0.090587 0.424240 -0.552881 -0.175000 0.458101 -0.597008 -0.247487 0.502228 -0.654517 -0.303109 0.553616 -0.721486 -0.338074 0.608761 -0.793353 -0.350000 0.663907 -0.865221 -0.338074 0.715295 -0.932190 -0.303109 0.759422 -0.989698 -0.247487 0.793282 -1.033826 -0.175000 0.814568 -1.061566 -0.090587 0.954594 -0.954594 0.000000 0.946161 -0.946161 0.090587 0.921437 -0.921437 0.175000 0.882107 -0.882107 0.247487 0.830850 -0.830850 0.303109 0.771161 -0.771161 0.338074 0.707107 -0.707107 0.350000 0.643052 -0.643052 0.338074 0.583363 -0.583363 0.303109 0.532107 -0.532107 0.247487 0.492776 -0.492776 0.175000 0.468052 -0.468052 0.090587 0.459619 -0.459619 0.000000 0.468052 -0.468052 -0.090587 0.492776 -0.492776 -0.175000 0.532107 -0.532107 -0.247487 0.583363 -0.583363 -0.303109 0.643052 -0.643052 -0.338074 0.707107 -0.707107 -0.350000 0.771161 -0.771161 -0.338074 0.830850 -0.830850 -0.303109 0.882107 -0.882107 -0.247487 0.921437 -0.921437 -0.175000 0.946161 -0.946161 -0.090587 1.071027 -0.821828 0.000000 1.061566 -0.814568 0.090587 1.033826 -0.793282 0.175000 0.989698 -0.759422 0.247487 0.932190 -0.715295 0.303109 0.865221 -0.663907 0.338074 0.793353 -0.608761 0.350000 0.721486 -0.553616 0.338074 0.654517 -0.502228 0.303109 0.597008 -0.458101 0.247487 0.552881 -0.424240 0.175000 0.525141 -0.402955 0.090587 0.515680 -0.395695 0.000000 0.525141 -0.402955 -0.090587 0.552881 -0.424240 -0.175000 0.597008 -0.458101 -0.247487 0.654517 -0.502228 -0.303109 0.721486 -0.553616 -0.338074 0.793353 -0.608761 -0.350000 0.865221 -0.663907 -0.338074 0.932190 -0.715295 -0.303109 0.989698 -0.759422 -0.247487 1.033826 -0.793282 -0.175000 1.061566 -0.814568 -0.090587 1.169134 -0.675000 0.000000 1.158806 -0.669037 0.090587 1.128525 -0.651554 0.175000 1.080356 -0.623744 0.247487 1.017580 -0.587500 0.303109 0.944476 -0.545293 0.338074 0.866025 -0.500000 0.350000 0.787575 -0.454707 0.338074 0.714471 -0.412500 0.303109 0.651695 -0.376256 0.247487 0.603525 -0.348446 0.175000 0.573245 -0.330963 0.090587 0.562917 -0.325000 0.000000 0.573245 -0.330963 -0.090587 0.603525 -0.348446 -0.175000 0.651695 -0.376256 -0.247487 0.714471 -0.412500 -0.303109 0.787575 -0.454707 -0.338074 0.866025 -0.500000 -0.350000 0.944476 -0.545293 -0.338074 1.017580 -0.587500 -0.303109 1.080356 -0.623744 -0.247487 1.128525 -0.651554 -0.175000 1.158806 -0.669037 -0.090587 1.247237 -0.516623 0.000000 1.236219 -0.512059 0.090587 1.203916 -0.498678 0.175000 1.152528 -0.477393 0.247487 1.085558 -0.449653 0.303109 1.007571 -0.417349 0.338074 0.923880 -0.382683 0.350000 0.840188 -0.348017 0.338074 0.762201 -0.315714 0.303109 0.695231 -0.287974 0.247487 0.643843 -0.266689 0.175000 0.611540 -0.253308 0.090587 0.600522 -0.248744 0.000000 0.611540 -0.253308 -0.090587 0.643843 -0.266689 -0.175000 0.695231 -0.287974 -0.247487 0.762201 -0.315714 -0.303109 0.840188 -0.348017 -0.338074 0.923880 -0.382683 -0.350000 1.007571 -0.417349 -0.338074 1.085558 -0.449653 -0.303109 1.152528 -0.477393 -0.247487 1.203916 -0.498678 -0.175000 1.236219 -0.512059 -0.090587 1.304000 -0.349406 0.000000 1.292480 -0.346319 0.090587 1.258707 -0.337269 0.175000 1.204980 -0.322873 0.247487 1.134963 -0.304112 0.303109 1.053426 -0.282265 0.338074 0.965926 -0.258819 0.350000 0.878426 -0.235373 0.338074 0.796889 -0.213526 0.303109 0.726871 -0.194765 0.247487 0.673145 -0.180369 0.175000 0.639371 -0.171319 0.090587 0.627852 -0.168232 0.000000 0.639371 -0.171319 -0.090587 0.673145 -0.180369 -0.175000 0.726871 -0.194765 -0.247487 0.796889 -0.213526 -0.303109 0.878426 -0.235373 -0.338074 0.965926 -0.258819 -0.350000 1.053426 -0.282265 -0.338074 1.134963 -0.304112 -0.303109 1.204980 -0.322873 -0.247487 1.258707 -0.337269 -0.175000 1.292480 -0.346319 -0.090587 1.338451 -0.176210 0.000000 1.326627 -0.174654 0.090587 1.291961 -0.170090 0.175000 1.236815 -0.162830 0.247487 1.164948 -0.153368 0.303109 1.081257 -0.142350 0.338074 0.991445 -0.130526 0.350000 0.901633 -0.118702 0.338074 0.817942 -0.107684 0.303109 0.746075 -0.098223 0.247487 0.690929 -0.090963 0.175000 0.656263 -0.086399 0.090587 0.644439 -0.084842 0.000000 0.656263 -0.086399 -0.090587 0.690929 -0.090963 -0.175000 0.746075 -0.098223 -0.247487 0.817942 -0.107684 -0.303109 0.901633 -0.118702 -0.338074 0.991445 -0.130526 -0.350000 1.081257 -0.142350 -0.338074 1.164948 -0.153368 -0.303109 1.236815 -0.162830 -0.247487 1.291961 -0.170090 -0.175000 1.326627 -0.174654 -0.090587
        </DataArray>
      </Points>
      <Polys>
        <DataArray type="Int32" Name="connectivity" format="ascii">
          0 24 25 0 25 1 1 25 26 1 26 2 2 26 27 2 27 3 3 27 28 3 28 4 4 28 29 4 29 5 5 29 30 5 30 6 6 30 31 6 31 7 7 31 32 7 32 8 8 32 33 8 33 9 9 33 34 9 34 10 10 34 35 10 35 11 11 35 36 11 36 12 12 36 37 12 37 13 13 37 38 13 38 14 14 38 39 14 39 15 15 39 40 15 40 16 16 40 41 16 41 17 17 41 42 17 42 18 18 42 43 18 43 19 19 43 44 19 44 20 20 44 45 20 45 21 21 45 46 21 46 22 22 46 47 22 47 23 23 47 24 23 24 0 24 48 49 24 49 25 25 49 50 25 50 26 26 50 51 26 51 27 27 51 52 27 52 28 28 52 53 28 53 29 29 53 54 29 54 30 30 54 55 30 55 31 31 55 56 31 56 32 32 56 57 32 57 33 33 57 58 33 58 34 34 58 59 34 59 35 35 59 60 35 60 36 36 60 61 36 61 37 37 61 62 37 62 38 38 62 63 38 63 39 39 63 64 39 64 40 40 64 65 40 65 41 41 65 66 41 66 42 42 66 67 42 67 43 43 67 68 43 68 44 44 68 69 44 69 45 45 69 70 45 70 46 46 70 71 46 71 47 47 71 48 47 48 24 48 72 73 48 73 49 49 73 74 49 74 50 50 74 75 50 75 51 51 75 76 51 76 52 52 76 77 52 77 53 53 77 78 53 78 54 54 78 79 54 79 55 55 79 80 55 80 56 56 80 81 56 81 57 57 81 82 57 82 58 58 82 83 58 83 59 59 83 84 59 84 60 60 84 85 60 85 61 61 85 86 61 86 62 62 86 87 62 87 63 63 87 88 63 88 64 64 88 89 64 89 65 65 89 90 65 90 66 66 90 91 66 91 67 67 91 92 67 92 68 68 92 93 68 93 69 69 93 94 69 94 70 70 94 95 70 95 71 71 95 72 71 72 48 72 96 97 72 97 73 73 97 98 73 98 74 74 98 99 74 99 75 75 99 100 75 100 76 76 100 101 76 101 77 77 101 102 77 102 78 78 102 103 78 103 79 79 103 104 79 104 80 80 104 105 80 105 81 81 105 106 81 106 82 82 106 107 82 107 83 83 107 108 83 108 84 84 108 109 84 109 85 85 109 110 85 110 86 86 110 111 86 111 87 87 111 112 87 112 88 88 112 113 88 113 89 89 113 114 89 114 90 90 114 115 90 115 91 91 115 116 91 116 92 92 116 117 92 117 93 93 117 118 93 118 94 94 118 119 94 119 95 95 119 96 95 96 72 96 120 121 96 121 97 97 121 122 97 122 98 98 122 123 98 123 99 99 123 124 99 124 100 100 124 125 100 125 101 101 125 126 101 126 102 102 126 127 102 127 103 103 127 128 103 128 104 104 128 129 104 129 105 105 129 130 105 130 106 106 130 131 106 131 107 107 131 132 107 132 108 108 132 133 108 133 109 109 133 134 109 134 110 110 134 135 110 135 111 111 135 136 111 136 112 112 136 137 112 137 113 113 137 138 113 138 114 114 138 139 114 139 115 115 139 140 115 140 116 116 140 141 116 141 117 117 141 142 117 142 118 118 142 143 118 143 119 119 143 120 119 120 96 120 144 145 120 145 121 121 145 146 121 146 122 122 146 147 122 147 123 123 147 148 123 148 124 124 148 149 124 149 125 125 149 150 125 150 126 126 150 151 126 151 127 127 151 152 127 152 128 128 152 153 128 153 129 129 153 154 129 154 130 130 154 155 130 155 131 131 155 156 131 156 132 132 156 157 132 157 133 133 157 158 133 158 134 134 158 159 134 159 135 135 159 160 135 160 136 136 160 161 136 161 137 137 161 162 137 162 138 138 162 163 138 163 139 139 163 164 139 164 140 140 164 165 140 165 141 141 165 166 141 166 142 142 166 167 142 167 143 143 167 144 143 144 120 144 168 169 144 169 145 145 169 170 145 170 146 146 170 171 146 171 147 147 171 172 147 172 148 148 172 173 148 173 149 149 173 174 149 174 150 150 174 175 150 175 151 151 175 176 151 176 152 152 176 177 152 177 153 153 177 178 153 178 154 154 178 179 154 179 155 155 179 180 155 180 156 156 180 181 156 181 157 157 181 182 157 182 158 158 182 183 158 183 159 159 183 184 159 184 160 160 184 185 160 185 161 161 185 186 161 186 162 162 186 187 162 187 163 163 187 188 163 188 164 164 188 189 164 189 165 165 189 190 165 190 166 166 190 191 166 191 167 167 191 168 167 168 144 168 192 193 168 193 169 169 193 194 169 194 170 170 194 195 170 195 171 171 195 196 171 196 172 172 196 197 172 197 173 173 197 198 173 198 174 174 198 199 174 199 175 175 199 200 175 200 176 176 200 201 176 201 177 177 201 202 177 202 178 178 202 203 178 203 179 179 203 204 179 204 180 180 204 205 180 205 181 181 205 206 181 206 182 182 206 207 182 207 183 183 207 208 183 208 184 184 208 209 184 209 185 185 209 210 185 210 186 186 210 211 186 211 187 187 211 212 187 212 188 188 212 213 188 213 189 189 213 214 189 214 190 190 214 215 190 215 191 191 215 192 191 192 168 192 216 217 192 217 193 193 217 218 193 218 194 194 218 219 194 219 195 195 219 220 195 220 196 196 220 221 196 221 197 197 221 222 197 222 198 198 222 223 198 223 199 199 223 224 199 224 200 200 224 225 200 225 201 201 225 226 201 226 202 202 226 227 202 227 203 203 227 228 203 228 204 204 228 229 204 229 205 205 229 230 205 230 206 206 230 231 206 231 207 207 231 232 207 232 208 208 232 233 208 233 209 209 233 234 209 234 210 210 234 235 210 235 211 211 235 236 211 236 212 212 236 237 212 237 213 213 237 238 213 238 214 214 238 239 214 239 215 215 239 216 215 216 192 216 240 241 216 241 217 217 241 242 217 242 218 218 242 243 218 243 219 219 243 244 219 244 220 220 244 245 220 245 221 221 245 246 221 246 222 222 246 247 222 247 223 223 247 248 223 248 224 224 248 249 224 249 225 225 249 250 225 250 226 226 250 251 226 251 227 227 251 252 227 252 228 228 252 253 228 253 229 229 253 254 229 254 230 230 254 255 230 255 231 231 255 256 231 256 232 232 256 257 232 257 233 233 257 258 233 258 234 234 258 259 234 259 235 235 259 260 235 260 236 236 260 261 236 261 237 237 261 262 237 262 238 238 262 263 238 263 239 239 263 240 239 240 216 240 264 265 240 265 241 241 265 266 241 266 242 242 266 267 242 267 243 243 267 268 243 268 244 244 268 269 244 269 245 245 269 270 245 270 246 246 270 271 246 271 247 247 271 272 247 272 248 248 272 273 248 273 249 249 273 274 249 274 250 250 274 275 250 275 251 251 275 276 251 276 252 252 276 277 252 277 253 253 277 278 253 278 254 254 278 279 254 279 255 255 279 280 255 280 256 256 280 281 256 281 257 257 281 282 257 282 258 258 282 283 258 283 259 259 283 284 259 284 260 260 284 285 260 285 261 261 285 286 261 286 262 262 286 287 262 287 263 263 287 264 263 264 240 264 288 289 264 289 265 265 289 290 265 290 266 266 290 291 266 291 267 267 291 292 267 292 268 268 292 293 268 293 269 269 293 294 269 294 270 270 294 295 270 295 271 271 295 296 271 296 272 272 296 297 272 297 273 273 297 298 273 298 274 274 298 299 274 299 275 275 299 300 275 300 276 276 300 301 276 301 277 277 301 302 277 302 278 278 302 303 278 303 279 279 303 304 279 304 280 280 304 305 280 305 281 281 305 306 281 306 282 282 306 307 282 307 283 283 307 308 283 308 284 284 308 309 284 309 285 285 309 310 285 310 286 286 310 311 286 311 287 287 311 288 287 288 264 288 312 313 288 313 289 289 313 314 289 314 290 290 314 315 290 315 291 291 315 316 291 316 292 292 316 317 292 317 293 293 317 318 293 318 294 294 318 319 294 319 295 295 319 320 295 320 296 296 320 321 296 321 297 297 321 322 297 322 298 298 322 323 298 323 299 299 323 324 299 324 300 300 324 325 300 325 301 301 325 326 301 326 302 302 326 327 302 327 303 303 327 328 303 328 304 304 328 329 304 329 305 305 329 330 305 330 306 306 330 331 306 331 307 307 331 332 307 332 308 308 332 333 308 333 309 309 333 334 309 334 310 310 334 335 310 335 311 311 335 312 311 312 288 312 336 337 312 337 313 313 337 338 313 338 314 314 338 339 314 339 315 315 339 340 315 340 316 316 340 341 316 341 317 317 341 342 317 342 318 318 342 343 318 343 319 319 343 344 319 344 320 320 344 345 320 345 321 321 345 346 321 346 322 322 346 347 322 347 323 323 347 348 323 348 324 324 348 349 324 349 325 325 349 350 325 350 326 326 350 351 326 351 327 327 351 352 327 352 328 328 352 353 328 353 329 329 353 354 329 354 330 330 354 355 330 355 331 331 355 356 331 356 332 332 356 357 332 357 333 333 357 358 333 358 334 334 358 359 334 359 335 335 359 336 335 336 312 336 360 361 336 361 337 337 361 362 337 362 338 338 362 363 338 363 339 339 363 364 339 364 340 340 364 365 340 365 341 341 365 366 341 366 342 342 366 367 342 367 343 343 367 368 343 368 344 344 368 369 344 369 345 345 369 370 345 370 346 346 370 371 346 371 347 347 371 372 347 372 348 348 372 373 348 373 349 349 373 374 349 374 350 350 374 375 350 375 351 351 375 376 351 376 352 352 376 377 352 377 353 353 377 378 353 378 354 354 378 379 354 379 355 355 379 380 355 380 356 356 380 381 356 381 357 357 381 382 357 382 358 358 382 383 358 383 359 359 383 360 359 360 336 360 384 385 360 385 361 361 385 386 361 386 362 362 386 387 362 387 363 363 387 388 363 388 364 364 388 389 364 389 365 365 389 390 365 390 366 366 390 391 366 391 367 367 391 392 367 392 368 368 392 393 368 393 369 369 393 394 369 394 370 370 394 395 370 395 371 371 395 396 371 396 372 372 396 397 372 397 373 373 397 398 373 398 374 374 398 399 374 399 375 375 399 400 375 400 376 376 400 401 376 401 377 377 401 402 377 402 378 378 402 403 378 403 379 379 403 404 379 404 380 380 404 405 380 405 381 381 405 406 381 406 382 382 406 407 382 407 383 383 407 384 383 384 360 384 408 409 384 409 385 385 409 410 385 410 386 386 410 411 386 411 387 387 411 412 387 412 388 388 412 413 388 413 389 389 413 414 389 414 390 390 414 415 390 415 391 391 415 416 391 416 392 392 416 417 392 417 393 393 417 418 393 418 394 394 418 419 394 419 395 395 419 420 395 420 396 396 420 421 396 421 397 397 421 422 397 422 398 398 422 423 398 423 399 399 423 424 399 424 400 400 424 425 400 425 401 401 425 426 401 426 402 402 426 427 402 427 403 403 427 428 403 428 404 404 428 429 404 429 405 405 429 430 405 430 406 406 430 431 406 431 407 407 431 408 407 408 384 408 432 433 408 433 409 409 433 434 409 434 410 410 434 435 410 435 411 411 435 436 411 436 412 412 436 437 412 437 413 413 437 438 413 438 414 414 438 439 414 439 415 415 439 440 415 440 416 416 440 441 416 441 417 417 441 442 417 442 418 418 442 443 418 443 419 419 443 444 419 444 420 420 444 445 420 445 421 421 445 446 421 446 422 422 446 447 422 447 423 423 447 448 423 448 424 424 448 449 424 449 425 425 449 450 425 450 426 426 450 451 426 451 427 427 451 452 427 452 428 428 452 453 428 453 429 429 453 454 429 454 430 430 454 455 430 455 431 431 455 432 431 432 408 432 456 457 432 457 433 433 457 458 433 458 434 434 458 459 434 459 435 435 459 460 435 460 436 436 460 461 436 461 437 437 461 462 437 462 438 438 462 463 438 463 439 439 463 464 439 464 440 440 464 465 440 465 441 441 465 466 441 466 442 442 466 467 442 467 443 443 467 468 443 468 444 444 468 469 444 469 445 445 469 470 445 470 446 446 470 471 446 471 447 447 471 472 447 472 448 448 472 473 448 473 449 449 473 474 449 474 450 450 474 475 450 475 451 451 475 476 451 476 452 452 476 477 452 477 453 453 477 478 453 478 454 454 478 479 454 479 455 455 479 456 455 456 432 456 480 481 456 481 457 457 481 482 457 482 458 458 482 483 458 483 459 459 483 484 459 484 460 460 484 485 460 485 461 461 485 486 461 486 462 462 486 487 462 487 463 463 487 488 463 488 464 464 488 489 464 489 465 465 489 490 465 490 466 466 490 491 466 491 467 467 491 492 467 492 468 468 492 493 468 493 469 469 493 494 469 494 470 470 494 495 470 495 471 471 495 496 471 496 472 472 496 497 472 497 473 473 497 498 473 498 474 474 498 499 474 499 475 475 499 500 475 500 476 476 500 501 476 501 477 477 501 502 477 502 478 478 502 503 478 503 479 479 503 480 479 480 456 480 504 505 480 505 481 481 505 506 481 506 482 482 506 507 482 507 483 483 507 508 483 508 484 484 508 509 484 509 485 485 509 510 485 510 486 486 510 511 486 511 487 487 511 512 487 512 488 488 512 513 488 513 489 489 513 514 489 514 490 490 514 515 490 515 491 491 515 516 491 516 492 492 516 517 492 517 493 493 517 518 493 518 494 494 518 519 494 519 495 495 519 520 495 520 496 496 520 521 496 521 497 497 521 522 497 522 498 498 522 523 498 523 499 499 523 524 499 524 500 500 524 525 500 525 501 501 525 526 501 526 502 502 526 527 502 527 503 503 527 504 503 504 480 504 528 529 504 529 505 505 529 530 505 530 506 506 530 531 506 531 507 507 531 532 507 532 508 508 532 533 508 533 509 509 533 534 509 534 510 510 534 535 510 535 511 511 535 536 511 536 512 512 536 537 512 537 513 513 537 538 513 538 514 514 538 539 514 539 515 515 539 540 515 540 516 516 540 541 516 541 517 517 541 542 517 542 518 518 542 543 518 543 519 519 543 544 519 544 520 520 544 545 520 545 521 521 545 546 521 546 522 522 546 547 522 547 523 523 547 548 523 548 524 524 548 549 524 549 525 525 549 550 525 550 526 526 550 551 526 551 527 527 551 528 527 528 504 528 552 553 528 553 529 529 553 554 529 554 530 530 554 555 530 555 531 531 555 556 531 556 532 532 556 557 532 557 533 533 557 558 533 558 534 534 558 559 534 559 535 535 559 560 535 560 536 536 560 561 536 561 537 537 561 562 537 562 538 538 562 563 538 563 539 539 563 564 539 564 540 540 564 565 540 565 541 541 565 566 541 566 542 542 566 567 542 567 543 543 567 568 543 568 544 544 568 569 544 569 545 545 569 570 545 570 546 546 570 571 546 571 547 547 571 572 547 572 548 548 572 573 548 573 549 549 573 574 549 574 550 550 574 575 550 575 551 551 575 552 551 552 528 552 576 577 552 577 553 553 577 578 553 578 554 554 578 579 554 579 555 555 579 580 555 580 556 556 580 581 556 581 557 557 581 582 557 582 558 558 582 583 558 583 559 559 583 584 559 584 560 560 584 585 560 585 561 561 585 586 561 586 562 562 586 587 562 587 563 563 587 588 563 588 564 564 588 589 564 589 565 565 589 590 565 590 566 566 590 591 566 591 567 567 591 592 567 592 568 568 592 593 568 593 569 569 593 594 569 594 570 570 594 595 570 595 571 571 595 596 571 596 572 572 596 597 572 597 573 573 597 598 573 598 574 574 598 599 574 599 575 575 599 576 575 576 552 576 600 601 576 601 577 577 601 602 577 602 578 578 602 603 578 603 579 579 603 604 579 604 580 580 604 605 580 605 581 581 605 606 581 606 582 582 606 607 582 607 583 583 607 608 583 608 584 584 608 609 584 609 585 585 609 610 585 610 586 586 610 611 586 611 587 587 611 612 587 612 588 588 612 613 588 613 589 589 613 614 589 614 590 590 614 615 590 615 591 591 615 616 591 616 592 592 616 617 592 617 593 593 617 618 593 618 594 594 618 619 594 619 595 595 619 620 595 620 596 596 620 621 596 621 597 597 621 622 597 622 598 598 622 623 598 623 599 599 623 600 599 600 576 600 624 625 600 625 601 601 625 626 601 626 602 602 626 627 602 627 603 603 627 628 603 628 604 604 628 629 604 629 605 605 629 630 605 630 606 606 630 631 606 631 607 607 631 632 607 632 608 608 632 633 608 633 609 609 633 634 609 634 610 610 634 635 610 635 611 611 635 636 611 636 612 612 636 637 612 637 613 613 637 638 613 638 614 614 638 639 614 639 615 615 639 640 615 640 616 616 640 641 616 641 617 617 641 642 617 642 618 618 642 643 618 643 619 619 643 644 619 644 620 620 644 645 620 645 621 621 645 646 621 646 622 622 646 647 622 647 623 623 647 624 623 624 600 624 648 649 624 649 625 625 649 650 625 650 626 626 650 651 626 651 627 627 651 652 627 652 628 628 652 653 628 653 629 629 653 654 629 654 630 630 654 655 630 655 631 631 655 656 631 656 632 632 656 657 632 657 633 633 657 658 633 658 634 634 658 659 634 659 635 635 659 660 635 660 636 636 660 661 636 661 637 637 661 662 637 662 638 638 662 663 638 663 639 639 663 664 639 664 640 640 664 665 640 665 641 641 665 666 641 666 642 642 666 667 642 667 643 643 667 668 643 668 644 644 668 669 644 669 645 645 669 670 645 670 646 646 670 671 646 671 647 647 671 648 647 648 624 648 672 673 648 673 649 649 673 674 649 674 650 650 674 675 650 675 651 651 675 676 651 676 652 652 676 677 652 677 653 653 677 678 653 678 654 654 678 679 654 679 655 655 679 680 655 680 656 656 680 681 656 681 657 657 681 682 657 682 658 658 682 683 658 683 659 659 683 684 659 684 660 660 684 685 660 685 661 661 685 686 661 686 662 662 686 687 662 687 663 663 687 688 663 688 664 664 688 689 664 689 665 665 689 690 665 690 666 666 690 691 666 691 667 667 691 692 667 692 668 668 692 693 668 693 669 669 693 694 669 694 670 670 694 695 670 695 671 671 695 672 671 672 648 672 696 697 672 697 673 673 697 698 673 698 674 674 698 699 674 699 675 675 699 700 675 700 676 676 700 701 676 701 677 677 701 702 677 702 678 678 702 703 678 703 679 679 703 704 679 704 680 680 704 705 680 705 681 681 705 706 681 706 682 682 706 707 682 707 683 683 707 708 683 708 684 684 708 709 684 709 685 685 709 710 685 710 686 686 710 711 686 711 687 687 711 712 687 712 688 688 712 713 688 713 689 689 713 714 689 714 690 690 714 715 690 715 691 691 715 716 691 716 692 692 716 717 692 717 693 693 717 718 693 718 694 694 718 719 694 719 695 695 719 696 695 696 672 696 720 721 696 721 697 697 721 722 697 722 698 698 722 723 698 723 699 699 723 724 699 724 700 700 724 725 700 725 701 701 725 726 701 726 702 702 726 727 702 727 703 703 727 728 703 728 704 704 728 729 704 729 705 705 729 730 705 730 706 706 730 731 706 731 707 707 731 732 707 732 708 708 732 733 708 733 709 709 733 734 709 734 710 710 734 735 710 735 711 711 735 736 711 736 712 712 736 737 712 737 713 713 737 738 713 738 714 714 738 739 714 739 715 715 739 740 715 740 716 716 740 741 716 741 717 717 741 742 717 742 718 718 742 743 718 743 719 719 743 720 719 720 696 720 744 745 720 745 721 721 745 746 721 746 722 722 746 747 722 747 723 723 747 748 723 748 724 724 748 749 724 749 725 725 749 750 725 750 726 726 750 751 726 751 727 727 751 752 727 752 728 728 752 753 728 753 729 729 753 754 729 754 730 730 754 755 730 755 731 731 755 756 731 756 732 732 756 757 732 757 733 733 757 758 733 758 734 734 758 759 734 759 735 735 759 760 735 760 736 736 760 761 736 761 737 737 761 762 737 762 738 738 762 763 738 763 739 739 763 764 739 764 740 740 764 765 740 765 741 741 765 766 741 766 742 742 766 767 742 767 743 743 767 744 743 744 720 744 768 769 744 769 745 745 769 770 745 770 746 746 770 771 746 771 747 747 771 772 747 772 748 748 772 773 748 773 749 749 773 774 749 774 750 750 774 775 750 775 751 751 775 776 751 776 752 752 776 777 752 777 753 753 777 778 753 778 754 754 778 779 754 779 755 755 779 780 755 780 756 756 780 781 756 781 757 757 781 782 757 782 758 758 782 783 758 783 759 759 783 784 759 784 760 760 784 785 760 785 761 761 785 786 761 786 762 762 786 787 762 787 763 763 787 788 763 788 764 764 788 789 764 789 765 765 789 790 765 790 766 766 790 791 766 791 767 767 791 768 767 768 744 768 792 793 768 793 769 769 793 794 769 794 770 770 794 795 770 795 771 771 795 796 771 796 772 772 796 797 772 797 773 773 797 798 773 798 774 774 798 799 774 799 775 775 799 800 775 800 776 776 800 801 776 801 777 777 801 802 777 802 778 778 802 803 778 803 779 779 803 804 779 804 780 780 804 805 780 805 781 781 805 806 781 806 782 782 806 807 782 807 783 783 807 808 783 808 784 784 808 809 784 809 785 785 809 810 785 810 786 786 810 811 786 811 787 787 811 812 787 812 788 788 812 813 788 813 789 789 813 814 789 814 790 790 814 815 790 815 791 791 815 792 791 792 768 792 816 817 792 817 793 793 817 818 793 818 794 794 818 819 794 819 795 795 819 820 795 820 796 796 820 821 796 821 797 797 821 822 797 822 798 798 822 823 798 823 799 799 823 824 799 824 800 800 824 825 800 825 801 801 825 826 801 826 802 802 826 827 802 827 803 803 827 828 803 828 804 804 828 829 804 829 805 805 829 830 805 830 806 806 830 831 806 831 807 807 831 832 807 832 808 808 832 833 808 833 809 809 833 834 809 834 810 810 834 835 810 835 811 811 835 836 811 836 812 812 836 837 812 837 813 813 837 838 813 838 814 814 838 839 814 839 815 815 839 816 815 816 792 816 840 841 816 841 817 817 841 842 817 842 818 818 842 843 818 843 819 819 843 844 819 844 820 820 844 845 820 845 821 821 845 846 821 846 822 822 846 847 822 847 823 823 847 848 823 848 824 824 848 849 824 849 825 825 849 850 825 850 826 826 850 851 826 851 827 827 851 852 827 852 828 828 852 853 828 853 829 829 853 854 829 854 830 830 854 855 830 855 831 831 855 856 831 856 832 832 856 857 832 857 833 833 857 858 833 858 834 834 858 859 834 859 835 835 859 860 835 860 836 836 860 861 836 861 837 837 861 862 837 862 838 838 862 863 838 863 839 839 863 840 839 840 816 840 864 865 840 865 841 841 865 866 841 866 842 842 866 867 842 867 843 843 867 868 843 868 844 844 868 869 844 869 845 845 869 870 845 870 846 846 870 871 846 871 847 847 871 872 847 872 848 848 872 873 848 873 849 849 873 874 849 874 850 850 874 875 850 875 851 851 875 876 851 876 852 852 876 877 852 877 853 853 877 878 853 878 854 854 878 879 854 879 855 855 879 880 855 880 856 856 880 881 856 881 857 857 881 882 857 882 858 858 882 883 858 883 859 859 883 884 859 884 860 860 884 885 860 885 861 861 885 886 861 886 862 862 886 887 862 887 863 863 887 864 863 864 840 864 888 889 864 889 865 865 889 890 865 890 866 866 890 891 866 891 867 867 891 892 867 892 868 868 892 893 868 893 869 869 893 894 869 894 870 870 894 895 870 895 871 871 895 896 871 896 872 872 896 897 872 897 873 873 897 898 873 898 874 874 898 899 874 899 875 875 899 900 875 900 876 876 900 901 876 901 877 877 901 902 877 902 878 878 902 903 878 903 879 879 903 904 879 904 880 880 904 905 880 905 881 881 905 906 881 906 882 882 906 907 882 907 883 883 907 908 883 908 884 884 908 909 884 909 885 885 909 910 885 910 886 886 910 911 886 911 887 887 911 888 887 888 864 888 912 913 888 913 889 889 913 914 889 914 890 890 914 915 890 915 891 891 915 916 891 916 892 892 916 917 892 917 893 893 917 918 893 918 894 894 918 919 894 919 895 895 919 920 895 920 896 896 920 921 896 921 897 897 921 922 897 922 898 898 922 923 898 923 899 899 923 924 899 924 900 900 924 925 900 925 901 901 925 926 901 926 902 902 926 927 902 927 903 903 927 928 903 928 904 904 928 929 904 929 905 905 929 930 905 930 906 906 930 931 906 931 907 907 931 932 907 932 908 908 932 933 908 933 909 909 933 934 909 934 910 910 934 935 910 935 911 911 935 912 911 912 888 912 936 937 912 937 913 913 937 938 913 938 914 914 938 939 914 939 915 915 939 940 915 940 916 916 940 941 916 941 917 917 941 942 917 942 918 918 942 943 918 943 919 919 943 944 919 944 920 920 944 945 920 945 921 921 945 946 921 946 922 922 946 947 922 947 923 923 947 948 923 948 924 924 948 949 924 949 925 925 949 950 925 950 926 926 950 951 926 951 927 927 951 952 927 952 928 928 952 953 928 953 929 929 953 954 929 954 930 930 954 955 930 955 931 931 955 956 931 956 932 932 956 957 932 957 933 933 957 958 933 958 934 934 958 959 934 959 935 935 959 936 935 936 912 936 960 961 936 961 937 937 961 962 937 962 938 938 962 963 938 963 939 939 963 964 939 964 940 940 964 965 940 965 941 941 965 966 941 966 942 942 966 967 942 967 943 943 967 968 943 968 944 944 968 969 944 969 945 945 969 970 945 970 946 946 970 971 946 971 947 947 971 972 947 972 948 948 972 973 948 973 949 949 973 974 949 974 950 950 974 975 950 975 951 951 975 976 951 976 952 952 976 977 952 977 953 953 977 978 953 978 954 954 978 979 954 979 955 955 979 980 955 980 956 956 980 981 956 981 957 957 981 982 957 982 958 958 982 983 958 983 959 959 983 960 959 960 936 960 984 985 960 985 961 961 985 986 961 986 962 962 986 987 962 987 963 963 987 988 963 988 964 964 988 989 964 989 965 965 989 990 965 990 966 966 990 991 966 991 967 967 991 992 967 992 968 968 992 993 968 993 969 969 993 994 969 994 970 970 994 995 970 995 971 971 995 996 971 996 972 972 996 997 972 997 973 973 997 998 973 998 974 974 998 999 974 999 975 975 999 1000 975 1000 976 976 1000 1001 976 1001 977 977 1001 1002 977 1002 978 978 1002 1003 978 1003 979 979 1003 1004 979 1004 980 980 1004 1005 980 1005 981 981 1005 1006 981 1006 982 982 1006 1007 982 1007 983 983 1007 984 983 984 960 984 1008 1009 984 1009 985 985 1009 1010 985 1010 986 986 1010 1011 986 1011 987 987 1011 1012 987 1012 988 988 1012 1013 988 1013 989 989 1013 1014 989 1014 990 990 1014 1015 990 1015 991 991 1015 1016 991 1016 992 992 1016 1017 992 1017 993 993 1017 1018 993 1018 994 994 1018 1019 994 1019 995 995 1019 1020 995 1020 996 996 1020 1021 996 1021 997 997 1021 1022 997 1022 998 998 1022 1023 998 1023 999 999 1023 1024 999 1024 1000 1000 1024 1025 1000 1025 1001 1001 1025 1026 1001 1026 1002 1002 1026 1027 1002 1027 1003 1003 1027 1028 1003 1028 1004 1004 1028 1029 1004 1029 1005 1005 1029 1030 1005 1030 1006 1006 1030 1031 1006 1031 1007 1007 1031 1008 1007 1008 984 1008 1032 1033 1008 1033 1009 1009 1033 1034 1009 1034 1010 1010 1034 1035 1010 1035 1011 1011 1035 1036 1011 1036 1012 1012 1036 1037 1012 1037 1013 1013 1037 1038 1013 1038 1014 1014 1038 1039 1014 1039 1015 1015 1039 1040 1015 1040 1016 1016 1040 1041 1016 1041 1017 1017 1041 1042 1017 1042 1018 1018 1042 1043 1018 1043 1019 1019 1043 1044 1019 1044 1020 1020 1044 1045 1020 1045 1021 1021 1045 1046 1021 1046 1022 1022 1046 1047 1022 1047 1023 1023 1047 1048 1023 1048 1024 1024 1048 1049 1024 1049 1025 1025 1049 1050 1025 1050 1026 1026 1050 1051 1026 1051 1027 1027 1051 1052 1027 1052 1028 1028 1052 1053 1028 1053 1029 1029 1053 1054 1029 1054 1030 1030 1054 1055 1030 1055 1031 1031 1055 1032 1031 1032 1008 1032 1056 1057 1032 1057 1033 1033 1057 1058 1033 1058 1034 1034 1058 1059 1034 1059 1035 1035 1059 1060 1035 1060 1036 1036 1060 1061 1036 1061 1037 1037 1061 1062 1037 1062 1038 1038 1062 1063 1038 1063 1039 1039 1063 1064 1039 1064 1040 1040 1064 1065 1040 1065 1041 1041 1065 1066 1041 1066 1042 1042 1066 1067 1042 1067 1043 1043 1067 1068 1043 1068 1044 1044 1068 1069 1044 1069 1045 1045 1069 1070 1045 1070 1046 1046 1070 1071 1046 1071 1047 1047 1071 1072 1047 1072 1048 1048 1072 1073 1048 1073 1049 1049 1073 1074 1049 1074 1050 1050 1074 1075 1050 1075 1051 1051 1075 1076 1051 1076 1052 1052 1076 1077 1052 1077 1053 1053 1077 1078 1053 1078 1054 1054 1078 1079 1054 1079 1055 1055 1079 1056 1055 1056 1032 1056 1080 1081 1056 1081 1057 1057 1081 1082 1057 1082 1058 1058 1082 1083 1058 1083 1059 1059 1083 1084 1059 1084 1060 1060 1084 1085 1060 1085 1061 1061 1085 1086 1061 1086 1062 1062 1086 1087 1062 1087 1063 1063 1087 1088 1063 1088 1064 1064 1088 1089 1064 1089 1065 1065 1089 1090 1065 1090 1066 1066 1090 1091 1066 1091 1067 1067 1091 1092 1067 1092 1068 1068 1092 1093 1068 1093 1069 1069 1093 1094 1069 1094 1070 1070 1094 1095 1070 1095 1071 1071 1095 1096 1071 1096 1072 1072 1096 1097 1072 1097 1073 1073 1097 1098 1073 1098 1074 1074 1098 1099 1074 1099 1075 1075 1099 1100 1075 1100 1076 1076 1100 1101 1076 1101 1077 1077 1101 1102 1077 1102 1078 1078 1102 1103 1078 1103 1079 1079 1103 1080 1079 1080 1056 1080 1104 1105 1080 1105 1081 1081 1105 1106 1081 1106 1082 1082 1106 1107 1082 1107 1083 1083 1107 1108 1083 1108 1084 1084 1108 1109 1084 1109 1085 1085 1109 1110 1085 1110 1086 1086 1110 1111 1086 1111 1087 1087 1111 1112 1087 1112 1088 1088 1112 1113 1088 1113 1089 1089 1113 1114 1089 1114 1090 1090 1114 1115 1090 1115 1091 1091 1115 1116 1091 1116 1092 1092 1116 1117 1092 1117 1093 1093 1117 1118 1093 1118 1094 1094 1118 1119 1094 1119 1095 1095 1119 1120 1095 1120 1096 1096 1120 1121 1096 1121 1097 1097 1121 1122 1097 1122 1098 1098 1122 1123 1098 1123 1099 1099 1123 1124 1099 1124 1100 1100 1124 1125 1100 1125 1101 1101 1125 1126 1101 1126 1102 1102 1126 1127 1102 1127 1103 1103 1127 1104 1103 1104 1080 1104 1128 1129 1104 1129 1105 1105 1129 1130 1105 1130 1106 1106 1130 1131 1106 1131 1107 1107 1131 1132 1107 1132 1108 1108 1132 1133 1108 1133 1109 1109 1133 1134 1109 1134 1110 1110 1134 1135 1110 1135 1111 1111 1135 1136 1111 1136 1112 1112 1136 1137 1112 1137 1113 1113 1137 1138 1113 1138 1114 1114 1138 1139 1114 1139 1115 1115 1139 1140 1115 1140 1116 1116 1140 1141 1116 1141 1117 1117 1141 1142 1117 1142 1118 1118 1142 1143 1118 1143 1119 1119 1143 1144 1119 1144 1120 1120 1144 1145 1120 1145 1121 1121 1145 1146 1121 1146 1122 1122 1146 1147 1122 1147 1123 1123 1147 1148 1123 1148 1124 1124 1148 1149 1124 1149 1125 1125 1149 1150 1125 1150 1126 1126 1150 1151 1126 1151 1127 1127 1151 1128 1127 1128 1104 1128 0 1 1128 1 1129 1129 1 2 1129 2 1130 1130 2 3 1130 3 1131 1131 3 4 1131 4 1132 1132 4 5 1132 5 1133 1133 5 6 1133 6 1134 1134 6 7 1134 7 1135 1135 7 8 1135 8 1136 1136 8 9 1136 9 1137 1137 9 10 1137 10 1138 1138 10 11 1138 11 1139 1139 11 12 1139 12 1140 1140 12 13 1140 13 1141 1141 13 14 1141 14 1142 1142 14 15 1142 15 1143 1143 15 16 1143 16 1144 1144 16 17 1144 17 1145 1145 17 18 1145 18 1146 1146 18 19 1146 19 1147 1147 19 20 1147 20 1148 1148 20 21 1148 21 1149 1149 21 22 1149 22 1150 1150 22 23 1150 23 1151 1151 23 0 1151 0 1128
        </DataArray>
        <DataArray type="Int32" Name="offsets" format="ascii">
          3 6 9 12 15 18 21 24 27 30 33 36 39 42 45 48 51 54 57 60 63 66 69 72 75 78 81 84 87 90 93 96 99 102 105 108 111 114 117 120 123 126 129 132 135 138 141 144 147 150 153 156 159 162 165 168 171 174 177 180 183 186 189 192 195 198 201 204 207 210 213 216 219 222 225 228 231 234 237 240 243 246 249 252 255 258 261 264 267 270 273 276 279 282 285 288 291 294 297 300 303 306 309 312 315 318 321 324 327 330 333 336 339 342 345 348 351 354 357 360 363 366 369 372 375 378 381 384 387 390 393 396 399 402 405 408 411 414 417 420 423 426 429 432 435 438 441 444 447 450 453 456 459 462 465 468 471 474 477 480 483 486 489 492 495 498 501 504 507 510 513 516 519 522 525 528 531 534 537 540 543 546 549 552 555 558 561 564 567 570 573 576 579 582 585 588 591 594 597 600 603 606 609 612 615 618 621 624 627 630 633 636 639 642 645 648 651 654 657 660 663 666 669 672 675 678 681 684 687 690 693 696 699 702 705 708 711 714 717 720 723 726 729 732 735 738 741 744 747 750 753 756 759 762 765 768 771 774 777 780 783 786 789 792 795 798 801 804 807 810 813 816 819 822 825 828 831 834 837 840 843 846 849 852 855 858 861 864 867 870 873 876 879 882 885 888 891 894 897 900 903 906 909 912 915 918 921 924 927 930 933 936 939 942 945 948 951 954 957 960 963 966 969 972 975 978 981 984 987 990 993 996 999 1002 1005 1008 1011 1014 1017 1020 1023 1026 1029 1032 1035 1038 1041 1044 1047 1050 1053 1056 1059 1062 1065 1068 1071 1074 1077 1080 1083 1086 1089 1092 1095 1098 1101 1104 1107 1110 1113 1116 1119 1122 1125 1128 1131 1134 1137 1140 1143 1146 1149 1152 1155 1158 1161 1164 1167 1170 1173 1176 1179 1182 1185 1188 1191 1194 1197 1200 1203 1206 1209 1212 1215 1218 1221 1224 1227 1230 1233 1236 1239 1242 1245 1248 1251 1254 1257 1260 1263 1266 1269 1272 1275 1278 1281 1284 1287 1290 1293 1296 1299 1302 1305 1308 1311 1314 1317 1320 1323 1326 1329 1332 1335 1338 1341 1344 1347 1350 1353 1356 1359 1362 1365 1368 1371 1374 1377 1380 1383 1386 1389 1392 1395 1398 1401 1404 1407 1410 1413 1416 1419 1422 1425 1428 1431 1434 1437 1440 1443 1446 1449 1452 1455 1458 1461 1464 1467 1470 1473 1476 1479 1482 1485 1488 1491 1494 1497 1500 1503 1506 1509 1512 1515 1518 1521 1524 1527 1530 1533 1536 1539 1542 1545 1548 1551 1554 1557 1560 1563 1566 1569 1572 1575 1578 1581 1584 1587 1590 1593 1596 1599 1602 1605 1608 1611 1614 1617 1620 1623 1626 1629 1632 1635 1638 1641 1644 1647 1650 1653 1656 1659 1662 1665 1668 1671 1674 1677 1680 1683 1686 1689 1692 1695 1698 1701 1704 1707 1710 1713 1716 1719 1722 1725 1728 1731 1734 1737 1740 1743 1746 1749 1752 1755 1758 1761 1764 1767 1770 1773 1776 1779 1782 1785 1788 1791 1794 1797 1800 1803 1806 1809 1812 1815 1818 1821 1824 1827 1830 1833 1836 1839 1842 1845 1848 1851 1854 1857 1860 1863 1866 1869 1872 1875 1878 1881 1884 1887 1890 1893 1896 1899 1902 1905 1908 1911 1914 1917 1920 1923 1926 1929 1932 1935 1938 1941 1944 1947 1950 1953 1956 1959 1962 1965 1968 1971 1974 1977 1980 1983 1986 1989 1992 1995 1998 2001 2004 2007 2010 2013 2016 2019 2022 2025 2028 2031 2034 2037 2040 2043 2046 2049 2052 2055 2058 2061 2064 2067 2070 2073 2076 2079 2082 2085 2088 2091 2094 2097 2100 2103 2106 2109 2112 2115 2118 2121 2124 2127 2130 2133 2136 2139 2142 2145 2148 2151 2154 2157 2160 2163 2166 2169 2172 2175 2178 2181 2184 2187 2190 2193 2196 2199 2202 2205 2208 2211 2214 2217 2220 2223 2226 2229 2232 2235 2238 2241 2244 2247 2250 2253 2256 2259 2262 2265 2268 2271 2274 2277 2280 2283 2286 2289 2292 2295 2298 2301 2304 2307 2310 2313 2316 2319 2322 2325 2328 2331 2334 2337 2340 2343 2346 2349 2352 2355 2358 2361 2364 2367 2370 2373 2376 2379 2382 2385 2388 2391 2394 2397 2400 2403 2406 2409 2412 2415 2418 2421 2424 2427 2430 2433 2436 2439 2442 2445 2448 2451 2454 2457 2460 2463 2466 2469 2472 2475 2478 2481 2484 2487 2490 2493 2496 2499 2502 2505 2508 2511 2514 2517 2520 2523 2526 2529 2532 2535 2538 2541 2544 2547 2550 2553 2556 2559 2562 2565 2568 2571 2574 2577 2580 2583 2586 2589 2592 2595 2598 2601 2604 2607 2610 2613 2616 2619 2622 2625 2628 2631 2634 2637 2640 2643 2646 2649 2652 2655 2658 2661 2664 2667 2670 2673 2676 2679 2682 2685 2688 2691 2694 2697 2700 2703 2706 2709 2712 2715 2718 2721 2724 2727 2730 2733 2736 2739 2742 2745 2748 2751 2754 2757 2760 2763 2766 2769 2772 2775 2778 2781 2784 2787 2790 2793 2796 2799 2802 2805 2808 2811 2814 2817 2820 2823 2826 2829 2832 2835 2838 2841 2844 2847 2850 2853 2856 2859 2862 2865 2868 2871 2874 2877 2880 2883 2886 2889 2892 2895 2898 2901 2904 2907 2910 2913 2916 2919 2922 2925 2928 2931 2934 2937 2940 2943 2946 2949 2952 2955 2958 2961 2964 2967 2970 2973 2976 2979 2982 2985 2988 2991 2994 2997 3000 3003 3006 3009 3012 3015 3018 3021 3024 3027 3030 3033 3036 3039 3042 3045 3048 3051 3054 3057 3060 3063 3066 3069 3072 3075 3078 3081 3084 3087 3090 3093 3096 3099 3102 3105 3108 3111 3114 3117 3120 3123 3126 3129 3132 3135 3138 3141 3144 3147 3150 3153 3156 3159 3162 3165 3168 3171 3174 3177 3180 3183 3186 3189 3192 3195 3198 3201 3204 3207 3210 3213 3216 3219 3222 3225 3228 3231 3234 3237 3240 3243 3246 3249 3252 3255 3258 3261 3264 3267 3270 3273 3276 3279 3282 3285 3288 3291 3294 3297 3300 3303 3306 3309 3312 3315 3318 3321 3324 3327 3330 3333 3336 3339 3342 3345 3348 3351 3354 3357 3360 3363 3366 3369 3372 3375 3378 3381 3384 3387 3390 3393 3396 3399 3402 3405 3408 3411 3414 3417 3420 3423 3426 3429 3432 3435 3438 3441 3444 3447 3450 3453 3456 3459 3462 3465 3468 3471 3474 3477 3480 3483 3486 3489 3492 3495 3498 3501 3504 3507 3510 3513 3516 3519 3522 3525 3528 3531 3534 3537 3540 3543 3546 3549 3552 3555 3558 3561 3564 3567 3570 3573 3576 3579 3582 3585 3588 3591 3594 3597 3600 3603 3606 3609 3612 3615 3618 3621 3624 3627 3630 3633 3636 3639 3642 3645 3648 3651 3654 3657 3660 3663 3666 3669 3672 3675 3678 3681 3684 3687 3690 3693 3696 3699 3702 3705 3708 3711 3714 3717 3720 3723 3726 3729 3732 3735 3738 3741 3744 3747 3750 3753 3756 3759 3762 3765 3768 3771 3774 3777 3780 3783 3786 3789 3792 3795 3798 3801 3804 3807 3810 3813 3816 3819 3822 3825 3828 3831 3834 3837 3840 3843 3846 3849 3852 3855 3858 3861 3864 3867 3870 3873 3876 3879 3882 3885 3888 3891 3894 3897 3900 3903 3906 3909 3912 3915 3918 3921 3924 3927 3930 3933 3936 3939 3942 3945 3948 3951 3954 3957 3960 3963 3966 3969 3972 3975 3978 3981 3984 3987 3990 3993 3996 3999 4002 4005 4008 4011 4014 4017 4020 4023 4026 4029 4032 4035 4038 4041 4044 4047 4050 4053 4056 4059 4062 4065 4068 4071 4074 4077 4080 4083 4086 4089 4092 4095 4098 4101 4104 4107 4110 4113 4116 4119 4122 4125 4128 4131 4134 4137 4140 4143 4146 4149 4152 4155 4158 4161 4164 4167 4170 4173 4176 4179 4182 4185 4188 4191 4194 4197 4200 4203 4206 4209 4212 4215 4218 4221 4224 4227 4230 4233 4236 4239 4242 4245 4248 4251 4254 4257 4260 4263 4266 4269 4272 4275 4278 4281 4284 4287 4290 4293 4296 4299 4302 4305 4308 4311 4314 4317 4320 4323 4326 4329 4332 4335 4338 4341 4344 4347 4350 4353 4356 4359 4362 4365 4368 4371 4374 4377 4380 4383 4386 4389 4392 4395 4398 4401 4404 4407 4410 4413 4416 4419 4422 4425 4428 4431 4434 4437 4440 4443 4446 4449 4452 4455 4458 4461 4464 4467 4470 4473 4476 4479 4482 4485 4488 4491 4494 4497 4500 4503 4506 4509 4512 4515 4518 4521 4524 4527 4530 4533 4536 4539 4542 4545 4548 4551 4554 4557 4560 4563 4566 4569 4572 4575 4578 4581 4584 4587 4590 4593 4596 4599 4602 4605 4608 4611 4614 4617 4620 4623 4626 4629 4632 4635 4638 4641 4644 4647 4650 4653 4656 4659 4662 4665 4668 4671 4674 4677 4680 4683 4686 4689 4692 4695 4698 4701 4704 4707 4710 4713 4716 4719 4722 4725 4728 4731 4734 4737 4740 4743 4746 4749 4752 4755 4758 4761 4764 4767 4770 4773 4776 4779 4782 4785 4788 4791 4794 4797 4800 4803 4806 4809 4812 4815 4818 4821 4824 4827 4830 4833 4836 4839 4842 4845 4848 4851 4854 4857 4860 4863 4866 4869 4872 4875 4878 4881 4884 4887 4890 4893 4896 4899 4902 4905 4908 4911 4914 4917 4920 4923 4926 4929 4932 4935 4938 4941 4944 4947 4950 4953 4956 4959 4962 4965 4968 4971 4974 4977 4980 4983 4986 4989 4992 4995 4998 5001 5004 5007 5010 5013 5016 5019 5022 5025 5028 5031 5034 5037 5040 5043 5046 5049 5052 5055 5058 5061 5064 5067 5070 5073 5076 5079 5082 5085 5088 5091 5094 5097 5100 5103 5106 5109 5112 5115 5118 5121 5124 5127 5130 5133 5136 5139 5142 5145 5148 5151 5154 5157 5160 5163 5166 5169 5172 5175 5178 5181 5184 5187 5190 5193 5196 5199 5202 5205 5208 5211 5214 5217 5220 5223 5226 5229 5232 5235 5238 5241 5244 5247 5250 5253 5256 5259 5262 5265 5268 5271 5274 5277 5280 5283 5286 5289 5292 5295 5298 5301 5304 5307 5310 5313 5316 5319 5322 5325 5328 5331 5334 5337 5340 5343 5346 5349 5352 5355 5358 5361 5364 5367 5370 5373 5376 5379 5382 5385 5388 5391 5394 5397 5400 5403 5406 5409 5412 5415 5418 5421 5424 5427 5430 5433 5436 5439 5442 5445 5448 5451 5454 5457 5460 5463 5466 5469 5472 5475 5478 5481 5484 5487 5490 5493 5496 5499 5502 5505 5508 5511 5514 5517 5520 5523 5526 5529 5532 5535 5538 5541 5544 5547 5550 5553 5556 5559 5562 5565 5568 5571 5574 5577 5580 5583 5586 5589 5592 5595 5598 5601 5604 5607 5610 5613 5616 5619 5622 5625 5628 5631 5634 5637 5640 5643 5646 5649 5652 5655 5658 5661 5664 5667 5670 5673 5676 5679 5682 5685 5688 5691 5694 5697 5700 5703 5706 5709 5712 5715 5718 5721 5724 5727 5730 5733 5736 5739 5742 5745 5748 5751 5754 5757 5760 5763 5766 5769 5772 5775 5778 5781 5784 5787 5790 5793 5796 5799 5802 5805 5808 5811 5814 5817 5820 5823 5826 5829 5832 5835 5838 5841 5844 5847 5850 5853 5856 5859 5862 5865 5868 5871 5874 5877 5880 5883 5886 5889 5892 5895 5898 5901 5904 5907 5910 5913 5916 5919 5922 5925 5928 5931 5934 5937 5940 5943 5946 5949 5952 5955 5958 5961 5964 5967 5970 5973 5976 5979 5982 5985 5988 5991 5994 5997 6000 6003 6006 6009 6012 6015 6018 6021 6024 6027 6030 6033 6036 6039 6042 6045 6048 6051 6054 6057 6060 6063 6066 6069 6072 6075 6078 6081 6084 6087 6090 6093 6096 6099 6102 6105 6108 6111 6114 6117 6120 6123 6126 6129 6132 6135 6138 6141 6144 6147 6150 6153 6156 6159 6162 6165 6168 6171 6174 6177 6180 6183 6186 6189 6192 6195 6198 6201 6204 6207 6210 6213 6216 6219 6222 6225 6228 6231 6234 6237 6240 6243 6246 6249 6252 6255 6258 6261 6264 6267 6270 6273 6276 6279 6282 6285 6288 6291 6294 6297 6300 6303 6306 6309 6312 6315 6318 6321 6324 6327 6330 6333 6336 6339 6342 6345 6348 6351 6354 6357 6360 6363 6366 6369 6372 6375 6378 6381 6384 6387 6390 6393 6396 6399 6402 6405 6408 6411 6414 6417 6420 6423 6426 6429 6432 6435 6438 6441 6444 6447 6450 6453 6456 6459 6462 6465 6468 6471 6474 6477 6480 6483 6486 6489 6492 6495 6498 6501 6504 6507 6510 6513 6516 6519 6522 6525 6528 6531 6534 6537 6540 6543 6546 6549 6552 6555 6558 6561 6564 6567 6570 6573 6576 6579 6582 6585 6588 6591 6594 6597 6600 6603 6606 6609 6612 6615 6618 6621 6624 6627 6630 6633 6636 6639 6642 6645 6648 6651 6654 6657 6660 6663 6666 6669 6672 6675 6678 6681 6684 6687 6690 6693 6696 6699 6702 6705 6708 6711 6714 6717 6720 6723 6726 6729 6732 6735 6738 6741 6744 6747 6750 6753 6756 6759 6762 6765 6768 6771 6774 6777 6780 6783 6786 6789 6792 6795 6798 6801 6804 6807 6810 6813 6816 6819 6822 6825 6828 6831 6834 6837 6840 6843 6846 6849 6852 6855 6858 6861 6864 6867 6870 6873 6876 6879 6882 6885 6888 6891 6894 6897 6900 6903 6906 6909 6912
        </DataArray>
      </Polys>
      <PointData Scalars="Q">
        <DataArray type="Float32" Name="Q" format="ascii">
          1.000000 0.965926 0.866025 0.707107 0.500000 0.258819 0.000000 -0.258819 -0.500000 -0.707107 -0.866025 -0.965926 -1.000000 -0.965926 -0.866025 -0.707107 -0.500000 -0.258819 -0.000000 0.258819 0.500000 0.707107 0.866025 0.965926 1.114805 1.076819 0.965449 0.788286 0.557403 0.288533 0.000000 -0.288533 -0.557403 -0.788286 -0.965449 -1.076819 -1.114805 -1.076819 -0.965449 -0.788286 -0.557403 -0.288533 -0.000000 0.288533 0.557403 0.788286 0.965449 1.076819 1.212132 1.170830 1.049737 0.857107 0.606066 0.313723 0.000000 -0.313723 -0.606066 -0.857107 -1.049737 -1.170830 -1.212132 -1.170830 -1.049737 -0.857107 -0.606066 -0.313723 -0.000000 0.313723 0.606066 0.857107 1.049737 1.170830 1.277164 1.233646 1.106056 0.903091 0.638582 0.330554 0.000000 -0.330554 -0.638582 -0.903091 -1.106056 -1.233646 -1.277164 -1.233646 -1.106056 -0.903091 -0.638582 -0.330554 -0.000000 0.330554 0.638582 0.903091 1.106056 1.233646 1.300000 1.255704 1.125833 0.919239 0.650000 0.336465 0.000000 -0.336465 -0.650000 -0.919239 -1.125833 -1.255704 -1.300000 -1.255704 -1.125833 -0.919239 -0.650000 -0.336465 -0.000000 0.336465 0.650000 0.919239 1.125833 1.255704 1.277164 1.233646 1.106056 0.903091 0.638582 0.330554 0.000000 -0.330554 -0.638582 -0.903091 -1.106056 -1.233646 -1.277164 -1.233646 -1.106056 -0.903091 -0.638582 -0.330554 -0.000000 0.330554 0.638582 0.903091 1.106056 1.233646 1.212132 1.170830 1.049737 0.857107 0.606066 0.313723 0.000000 -0.313723 -0.606066 -0.857107 -1.049737 -1.170830 -1.212132 -1.170830 -1.049737 -0.857107 -0.606066 -0.313723 -0.000000 0.313723 0.606066 0.857107 1.049737 1.170830 1.114805 1.076819 0.965449 0.788286 0.557403 0.288533 0.000000 -0.288533 -0.557403 -0.788286 -0.965449 -1.076819 -1.114805 -1.076819 -0.965449 -0.788286 -0.557403 -0.288533 -0.000000 0.288533 0.557403 0.788286 0.965449 1.076819 1.000000 0.965926 0.866025 0.707107 0.500000 0.258819 0.000000 -0.258819 -0.500000 -0.707107 -0.866025 -0.965926 -1.000000 -0.965926 -0.866025 -0.707107 -0.500000 -0.258819 -0.000000 0.258819 0.500000 0.707107 0.866025 0.965926 0.885195 0.855033 0.766601 0.625927 0.442597 0.229105 0.000000 -0.229105 -0.442597 -0.625927 -0.766601 -0.855033 -0.885195 -0.855033 -0.766601 -0.625927 -0.442597 -0.229105 -0.000000 0.229105 0.442597 0.625927 0.766601 0.855033 0.787868 0.761022 0.682314 0.557107 0.393934 0.203915 0.000000 -0.203915 -0.393934 -0.557107 -0.682314 -0.761022 -0.787868 -0.761022 -0.682314 -0.557107 -0.393934 -0.203915 -0.000000 0.203915 0.393934 0.557107 0.682314 0.761022 0.722836 0.698206 0.625994 0.511122 0.361418 0.187084 0.000000 -0.187084 -0.361418 -0.511122 -0.625994 -0.698206 -0.722836 -0.698206 -0.625994 -0.511122 -0.361418 -0.187084 -0.000000 0.187084 0.361418 0.511122 0.625994 0.698206 0.700000 0.676148 0.606218 0.494975 0.350000 0.181173 0.000000 -0.181173 -0.350000 -0.494975 -0.606218 -0.676148 -0.700000 -0.676148 -0.606218 -0.494975 -0.350000 -0.181173 -0.000000 0.181173 0.350000 0.494975 0.606218 0.676148 0.722836 0.698206 0.625994 0.511122 0.361418 0.187084 0.000000 -0.187084 -0.361418 -0.511122 -0.625994 -0.698206 -0.722836 -0.698206 -0.625994 -0.511122 -0.361418 -0.187084 -0.000000 0.187084 0.361418 0.511122 0.625994 0.698206 0.787868 0.761022 0.682314 0.557107 0.393934 0.203915 0.000000 -0.203915 -0.393934 -0.557107 -0.682314 -0.761022 -0.787868 -0.761022 -0.682314 -0.557107 -0.393934 -0.203915 -0.000000 0.203915 0.393934 0.557107 0.682314 0.761022 0.885195 0.855033 0.766601 0.625927 0.442597 0.229105 0.000000 -0.229105 -0.442597 -0.625927 -0.766601 -0.855033 -0.885195 -0.855033 -0.766601 -0.625927 -0.442597 -0.229105 -0.000000 0.229105 0.442597 0.625927 0.766601 0.855033 1.000000 0.965926 0.866025 0.707107 0.500000 0.258819 0.000000 -0.258819 -0.500000 -0.707107 -0.866025 -0.965926 -1.000000 -0.965926 -0.866025 -0.707107 -0.500000 -0.258819 -0.000000 0.258819 0.500000 0.707107 0.866025 0.965926 1.114805 1.076819 0.965449 0.788286 0.557403 0.288533 0.000000 -0.288533 -0.557403 -0.788286 -0.965449 -1.076819 -1.114805 -1.076819 -0.965449 -0.788286 -0.557403 -0.288533 -0.000000 0.288533 0.557403 0.788286 0.965449 1.076819 1.212132 1.170830 1.049737 0.857107 0.606066 0.313723 0.000000 -0.313723 -0.606066 -0.857107 -1.049737 -1.170830 -1.212132 -1.170830 -1.049737 -0.857107 -0.606066 -0.313723 -0.000000 0.313723 0.606066 0.857107 1.049737 1.170830 1.277164 1.233646 1.106056 0.903091 0.638582 0.330554 0.000000 -0.330554 -0.638582 -0.903091 -1.106056 -1.233646 -1.277164 -1.233646 -1.106056 -0.903091 -0.638582 -0.330554 -0.000000 0.330554 0.638582 0.903091 1.106056 1.233646 1.300000 1.255704 1.125833 0.919239 0.650000 0.336465 0.000000 -0.336465 -0.650000 -0.919239 -1.125833 -1.255704 -1.300000 -1.255704 -1.125833 -0.919239 -0.650000 -0.336465 -0.000000 0.336465 0.650000 0.919239 1.125833 1.255704 1.277164 1.233646 1.106056 0.903091 0.638582 0.330554 0.000000 -0.330554 -0.638582 -0.903091 -1.106056 -1.233646 -1.277164 -1.233646 -1.106056 -0.903091 -0.638582 -0.330554 -0.000000 0.330554 0.638582 0.903091 1.106056 1.233646 1.212132 1.170830 1.049737 0.857107 0.606066 0.313723 0.000000 -0.313723 -0.606066 -0.857107 -1.049737 -1.170830 -1.212132 -1.170830 -1.049737 -0.857107 -0.606066 -0.313723 -0.000000 0.313723 0.606066 0.857107 1.049737 1.170830 1.114805 1.076819 0.965449 0.788286 0.557403 0.288533 0.000000 -0.288533 -0.557403 -0.788286 -0.965449 -1.076819 -1.114805 -1.076819 -0.965449 -0.788286 -0.557403 -0.288533 -0.000000 0.288533 0.557403 0.788286 0.965449 1.076819 1.000000 0.965926 0.866025 0.707107 0.500000 0.258819 0.000000 -0.258819 -0.500000 -0.707107 -0.866025 -0.965926 -1.000000 -0.965926 -0.866025 -0.707107 -0.500000 -0.258819 -0.000000 0.258819 0.500000 0.707107 0.866025 0.965926 0.885195 0.855033 0.766601 0.625927 0.442597 0.229105 0.000000 -0.229105 -0.442597 -0.625927 -0.766601 -0.855033 -0.885195 -0.855033 -0.766601 -0.625927 -0.442597 -0.229105 -0.000000 0.229105 0.442597 0.625927 0.766601 0.855033 0.787868 0.761022 0.682314 0.557107 0.393934 0.203915 0.000000 -0.203915 -0.393934 -0.557107 -0.682314 -0.761022 -0.787868 -0.761022 -0.682314 -0.557107 -0.393934 -0.203915 -0.000000 0.203915 0.393934 0.557107 0.682314 0.761022 0.722836 0.698206 0.625994 0.511122 0.361418 0.187084 0.000000 -0.187084 -0.361418 -0.511122 -0.625994 -0.698206 -0.722836 -0.698206 -0.625994 -0.511122 -0.361418 -0.187084 -0.000000 0.187084 0.361418 0.511122 0.625994 0.698206 0.700000 0.676148 0.606218 0.494975 0.350000 0.181173 0.000000 -0.181173 -0.350000 -0.494975 -0.606218 -0.676148 -0.700000 -0.676148 -0.606218 -0.494975 -0.350000 -0.181173 -0.000000 0.181173 0.350000 0.494975 0.606218 0.676148 0.722836 0.698206 0.625994 0.511122 0.361418 0.187084 0.000000 -0.187084 -0.361418 -0.511122 -0.625994 -0.698206 -0.722836 -0.698206 -0.625994 -0.511122 -0.361418 -0.187084 -0.000000 0.187084 0.361418 0.511122 0.625994 0.698206 0.787868 0.761022 0.682314 0.557107 0.393934 0.203915 0.000000 -0.203915 -0.393934 -0.557107 -0.682314 -0.761022 -0.787868 -0.761022 -0.682314 -0.557107 -0.393934 -0.203915 -0.000000 0.203915 0.393934 0.557107 0.682314 0.761022 0.885195 0.855033 0.766601 0.625927 0.442597 0.229105 0.000000 -0.229105 -0.442597 -0.625927 -0.766601 -0.855033 -0.885195 -0.855033 -0.766601 -0.625927 -0.442597 -0.229105 -0.000000 0.229105 0.442597 0.625927 0.766601 0.855033 1.000000 0.965926 0.866025 0.707107 0.500000 0.258819 0.000000 -0.258819 -0.500000 -0.707107 -0.866025 -0.965926 -1.000000 -0.965926 -0.866025 -0.707107 -0.500000 -0.258819 -0.000000 0.258819 0.500000 0.707107 0.866025 0.965926 1.114805 1.076819 0.965449 0.788286 0.557403 0.288533 0.000000 -0.288533 -0.557403 -0.788286 -0.965449 -1.076819 -1.114805 -1.076819 -0.965449 -0.788286 -0.557403 -0.288533 -0.000000 0.288533 0.557403 0.788286 0.965449 1.076819 1.212132 1.170830 1.049737 0.857107 0.606066 0.313723 0.000000 -0.313723 -0.606066 -0.857107 -1.049737 -1.170830 -1.212132 -1.170830 -1.049737 -0.857107 -0.606066 -0.313723 -0.000000 0.313723 0.606066 0.857107 1.049737 1.170830 1.277164 1.233646 1.106056 0.903091 0.638582 0.330554 0.000000 -0.330554 -0.638582 -0.903091 -1.106056 -1.233646 -1.277164 -1.233646 -1.106056 -0.903091 -0.638582 -0.330554 -0.000000 0.330554 0.638582 0.903091 1.106056 1.233646 1.300000 1.255704 1.125833 0.919239 0.650000 0.336465 0.000000 -0.336465 -0.650000 -0.919239 -1.125833 -1.255704 -1.300000 -1.255704 -1.125833 -0.919239 -0.650000 -0.336465 -0.000000 0.336465 0.650000 0.919239 1.125833 1.255704 1.277164 1.233646 1.106056 0.903091 0.638582 0.330554 0.000000 -0.330554 -0.638582 -0.903091 -1.106056 -1.233646 -1.277164 -1.233646 -1.106056 -0.903091 -0.638582 -0.330554 -0.000000 0.330554 0.638582 0.903091 1.106056 1.233646 1.212132 1.170830 1.049737 0.857107 0.606066 0.313723 0.000000 -0.313723 -0.606066 -0.857107 -1.049737 -1.170830 -1.212132 -1.170830 -1.049737 -0.857107 -0.606066 -0.313723 -0.000000 0.313723 0.606066 0.857107 1.049737 1.170830 1.114805 1.076819 0.965449 0.788286 0.557403 0.288533 0.000000 -0.288533 -0.557403 -0.788286 -0.965449 -1.076819 -1.114805 -1.076819 -0.965449 -0.788286 -0.557403 -0.288533 -0.000000 0.288533 0.557403 0.788286 0.965449 1.076819 1.000000 0.965926 0.866025 0.707107 0.500000 0.258819 0.000000 -0.258819 -0.500000 -0.707107 -0.866025 -0.965926 -1.000000 -0.965926 -0.866025 -0.707107 -0.500000 -0.258819 -0.000000 0.258819 0.500000 0.707107 0.866025 0.965926 0.885195 0.855033 0.766601 0.625927 0.442597 0.229105 0.000000 -0.229105 -0.442597 -0.625927 -0.766601 -0.855033 -0.885195 -0.855033 -0.766601 -0.625927 -0.442597 -0.229105 -0.000000 0.229105 0.442597 0.625927 0.766601 0.855033 0.787868 0.761022 0.682314 0.557107 0.393934 0.203915 0.000000 -0.203915 -0.393934 -0.557107 -0.682314 -0.761022 -0.787868 -0.761022 -0.682314 -0.557107 -0.393934 -0.203915 -0.000000 0.203915 0.393934 0.557107 0.682314 0.761022 0.722836 0.698206 0.625994 0.511122 0.361418 0.187084 0.000000 -0.187084 -0.361418 -0.511122 -0.625994 -0.698206 -0.722836 -0.698206 -0.625994 -0.511122 -0.361418 -0.187084 -0.000000 0.187084 0.361418 0.511122 0.625994 0.698206 0.700000 0.676148 0.606218 0.494975 0.350000 0.181173 0.000000 -0.181173 -0.350000 -0.494975 -0.606218 -0.676148 -0.700000 -0.676148 -0.606218 -0.494975 -0.350000 -0.181173 -0.000000 0.181173 0.350000 0.494975 0.606218 0.676148 0.722836 0.698206 0.625994 0.511122 0.361418 0.187084 0.000000 -0.187084 -0.361418 -0.511122 -0.625994 -0.698206 -0.722836 -0.698206 -0.625994 -0.511122 -0.361418 -0.187084 -0.000000 0.187084 0.361418 0.511122 0.625994 0.698206 0.787868 0.761022 0.682314 0.557107 0.393934 0.203915 0.000000 -0.203915 -0.393934 -0.557107 -0.682314 -0.761022 -0.787868 -0.761022 -0.682314 -0.557107 -0.393934 -0.203915 -0.000000 0.203915 0.393934 0.557107 0.682314 0.761022 0.885195 0.855033 0.766601 0.625927 0.442597 0.229105 0.000000 -0.229105 -0.442597 -0.625927 -0.766601 -0.855033 -0.885195 -0.855033 -0.766601 -0.625927 -0.442597 -0.229105 -0.000000 0.229105 0.442597 0.625927 0.766601 0.855033
        </DataArray>
        <DataArray type="Float32" Name="azimuth" format="ascii">
          0.000000 0.000000 0.000000 0.000000 0.000000 0.000000 0.000000 0.000000 0.000000 0.000000 0.000000 0.000000 0.000000 0.000000 0.000000 0.000000 0.000000 0.000000 0.000000 0.000000 0.000000 0.000000 0.000000 0.000000 0.130900 0.130900 0.130900 0.130900 0.130900 0.130900 0.130900 0.130900 0.130900 0.130900 0.130900 0.130900 0.130900 0.130900 0.130900 0.130900 0.130900 0.130900 0.130900 0.130900 0.130900 0.130900 0.130900 0.130900 0.261799 0.261799 0.261799 0.261799 0.261799 0.261799 0.261799 0.261799 0.261799 0.261799 0.261799 0.261799 0.261799 0.261799 0.261799 0.261799 0.261799 0.261799 0.261799 0.261799 0.261799 0.261799 0.261799 0.261799 0.392699 0.392699 0.392699 0.392699 0.392699 0.392699 0.392699 0.392699 0.392699 0.392699 0.392699 0.392699 0.392699 0.392699 0.392699 0.392699 0.392699 0.392699 0.392699 0.392699 0.392699 0.392699 0.392699 0.392699 0.523599 0.523599 0.523599 0.523599 0.523599 0.523599 0.523599 0.523599 0.523599 0.523599 0.523599 0.523599 0.523599 0.523599 0.523599 0.523599 0.523599 0.523599 0.523599 0.523599 0.523599 0.523599 0.523599 0.523599 0.654498 0.654498 0.654498 0.654498 0.654498 0.654498 0.654498 0.654498 0.654498 0.654498 0.654498 0.654498 0.654498 0.654498 0.654498 0.654498 0.654498 0.654498 0.654498 0.654498 0.654498 0.654498 0.654498 0.654498 0.785398 0.785398 0.785398 0.785398 0.785398 0.785398 0.785398 0.785398 0.785398 0.785398 0.785398 0.785398 0.785398 0.785398 0.785398 0.785398 0.785398 0.785398 0.785398 0.785398 0.785398 0.785398 0.785398 0.785398 0.916298 0.916298 0.916298 0.916298 0.916298 0.916298 0.916298 0.916298 0.916298 0.916298 0.916298 0.916298 0.916298 0.916298 0.916298 0.916298 0.916298 0.916298 0.916298 0.916298 0.916298 0.916298 0.916298 0.916298 1.047198 1.047198 1.047198 1.047198 1.047198 1.047198 1.047198 1.047198 1.047198 1.047198 1.047198 1.047198 1.047198 1.047198 1.047198 1.047198 1.047198 1.047198 1.047198 1.047198 1.047198 1.047198 1.047198 1.047198 1.178097 1.178097 1.178097 1.178097 1.178097 1.178097 1.178097 1.178097 1.178097 1.178097 1.178097 1.178097 1.178097 1.178097 1.178097 1.178097 1.178097 1.178097 1.178097 1.178097 1.178097 1.178097 1.178097 1.178097 1.308997 1.308997 1.308997 1.308997 1.308997 1.308997 1.308997 1.308997 1.308997 1.308997 1.308997 1.308997 1.308997 1.308997 1.308997 1.308997 1.308997 1.308997 1.308997 1.308997 1.308997 1.308997 1.308997 1.308997 1.439897 1.439897 1.439897 1.439897 1.439897 1.439897 1.439897 1.439897 1.439897 1.439897 1.439897 1.439897 1.439897 1.439897 1.439897 1.439897 1.439897 1.439897 1.439897 1.439897 1.439897 1.439897 1.439897 1.439897 1.570796 1.570796 1.570796 1.570796 1.570796 1.570796 1.570796 1.570796 1.570796 1.570796 1.570796 1.570796 1.570796 1.570796 1.570796 1.570796 1.570796 1.570796 1.570796 1.570796 1.570796 1.570796 1.570796 1.570796 1.701696 1.701696 1.701696 1.701696 1.701696 1.701696 1.701696 1.701696 1.701696 1.701696 1.701696 1.701696 1.701696 1.701696 1.701696 1.701696 1.701696 1.701696 1.701696 1.701696 1.701696 1.701696 1.701696 1.701696 1.832596 1.832596 1.832596 1.832596 1.832596 1.832596 1.832596 1.832596 1.832596 1.832596 1.832596 1.832596 1.832596 1.832596 1.832596 1.832596 1.832596 1.832596 1.832596 1.832596 1.832596 1.832596 1.832596 1.832596 1.963495 1.963495 1.963495 1.963495 1.963495 1.963495 1.963495 1.963495 1.963495 1.963495 1.963495 1.963495 1.963495 1.963495 1.963495 1.963495 1.963495 1.963495 1.963495 1.963495 1.963495 1.963495 1.963495 1.963495 2.094395 2.094395 2.094395 2.094395 2.094395 2.094395 2.094395 2.094395 2.094395 2.094395 2.094395 2.094395 2.094395 2.094395 2.094395 2.094395 2.094395 2.094395 2.094395 2.094395 2.094395 2.094395 2.094395 2.094395 2.225295 2.225295 2.225295 2.225295 2.225295 2.225295 2.225295 2.225295 2.225295 2.225295 2.225295 2.225295 2.225295 2.225295 2.225295 2.225295 2.225295 2.225295 2.225295 2.225295 2.225295 2.225295 2.225295 2.225295 2.356194 2.356194 2.356194 2.356194 2.356194 2.356194 2.356194 2.356194 2.356194 2.356194 2.356194 2.356194 2.356194 2.356194 2.356194 2.356194 2.356194 2.356194 2.356194 2.356194 2.356194 2.356194 2.356194 2.356194 2.487094 2.487094 2.487094 2.487094 2.487094 2.487094 2.487094 2.487094 2.487094 2.487094 2.487094 2.487094 2.487094 2.487094 2.487094 2.487094 2.487094 2.487094 2.487094 2.487094 2.487094 2.487094 2.487094 2.487094 2.617994 2.617994 2.617994 2.617994 2.617994 2.617994 2.617994 2.617994 2.617994 2.617994 2.617994 2.617994 2.617994 2.617994 2.617994 2.617994 2.617994 2.617994 2.617994 2.617994 2.617994 2.617994 2.617994 2.617994 2.748894 2.748894 2.748894 2.748894 2.748894 2.748894 2.748894 2.748894 2.748894 2.748894 2.748894 2.748894 2.748894 2.748894 2.748894 2.748894 2.748894 2.748894 2.748894 2.748894 2.748894 2.748894 2.748894 2.748894 2.879793 2.879793 2.879793 2.879793 2.879793 2.879793 2.879793 2.879793 2.879793 2.879793 2.879793 2.879793 2.879793 2.879793 2.879793 2.879793 2.879793 2.879793 2.879793 2.879793 2.879793 2.879793 2.879793 2.879793 3.010693 3.010693 3.010693 3.010693 3.010693 3.010693 3.010693 3.010693 3.010693 3.010693 3.010693 3.010693 3.010693 3.010693 3.010693 3.010693 3.010693 3.010693 3.010693 3.010693 3.010693 3.010693 3.010693 3.010693 3.141593 3.141593 3.141593 3.141593 3.141593 3.141593 3.141593 3.141593 3.141593 3.141593 3.141593 3.141593 3.141593 3.141593 3.141593 3.141593 3.141593 3.141593 3.141593 3.141593 3.141593 3.141593 3.141593 3.141593 3.272492 3.272492 3.272492 3.272492 3.272492 3.272492 3.272492 3.272492 3.272492 3.272492 3.272492 3.272492 3.272492 3.272492 3.272492 3.272492 3.272492 3.272492 3.272492 3.272492 3.272492 3.272492 3.272492 3.272492 3.403392 3.403392 3.403392 3.403392 3.403392 3.403392 3.403392 3.403392 3.403392 3.403392 3.403392 3.403392 3.403392 3.403392 3.403392 3.403392 3.403392 3.403392 3.403392 3.403392 3.403392 3.403392 3.403392 3.403392 3.534292 3.534292 3.534292 3.534292 3.534292 3.534292 3.534292 3.534292 3.534292 3.534292 3.534292 3.534292 3.534292 3.534292 3.534292 3.534292 3.534292 3.534292 3.534292 3.534292 3.534292 3.534292 3.534292 3.534292 3.665191 3.665191 3.665191 3.665191 3.665191 3.665191 3.665191 3.665191 3.665191 3.665191 3.665191 3.665191 3.665191 3.665191 3.665191 3.665191 3.665191 3.665191 3.665191 3.665191 3.665191 3.665191 3.665191 3.665191 3.796091 3.796091 3.796091 3.796091 3.796091 3.796091 3.796091 3.796091 3.796091 3.796091 3.796091 3.796091 3.796091 3.796091 3.796091 3.796091 3.796091 3.796091 3.796091 3.796091 3.796091 3.796091 3.796091 3.796091 3.926991 3.926991 3.926991 3.926991 3.926991 3.926991 3.926991 3.926991 3.926991 3.926991 3.926991 3.926991 3.926991 3.926991 3.926991 3.926991 3.926991 3.926991 3.926991 3.926991 3.926991 3.926991 3.926991 3.926991 4.057891 4.057891 4.057891 4.057891 4.057891 4.057891 4.057891 4.057891 4.057891 4.057891 4.057891 4.057891 4.057891 4.057891 4.057891 4.057891 4.057891 4.057891 4.057891 4.057891 4.057891 4.057891 4.057891 4.057891 4.188790 4.188790 4.188790 4.188790 4.188790 4.188790 4.188790 4.188790 4.188790 4.188790 4.188790 4.188790 4.188790 4.188790 4.188790 4.188790 4.188790 4.188790 4.188790 4.188790 4.188790 4.188790 4.188790 4.188790 4.319690 4.319690 4.319690 4.319690 4.319690 4.319690 4.319690 4.319690 4.319690 4.319690 4.319690 4.319690 4.319690 4.319690 4.319690 4.319690 4.319690 4.319690 4.319690 4.319690 4.319690 4.319690 4.319690 4.319690 4.450590 4.450590 4.450590 4.450590 4.450590 4.450590 4.450590 4.450590 4.450590 4.450590 4.450590 4.450590 4.450590 4.450590 4.450590 4.450590 4.450590 4.450590 4.450590 4.450590 4.450590 4.450590 4.450590 4.450590 4.581489 4.581489 4.581489 4.581489 4.581489 4.581489 4.581489 4.581489 4.581489 4.581489 4.581489 4.581489 4.581489 4.581489 4.581489 4.581489 4.581489 4.581489 4.581489 4.581489 4.581489 4.581489 4.581489 4.581489 4.712389 4.712389 4.712389 4.712389 4.712389 4.712389 4.712389 4.712389 4.712389 4.712389 4.712389 4.712389 4.712389 4.712389 4.712389 4.712389 4.712389 4.712389 4.712389 4.712389 4.712389 4.712389 4.712389 4.712389 4.843289 4.843289 4.843289 4.843289 4.843289 4.843289 4.843289 4.843289 4.843289 4.843289 4.843289 4.843289 4.843289 4.843289 4.843289 4.843289 4.843289 4.843289 4.843289 4.843289 4.843289 4.843289 4.843289 4.843289 4.974188 4.974188 4.974188 4.974188 4.974188 4.974188 4.974188 4.974188 4.974188 4.974188 4.974188 4.974188 4.974188 4.974188 4.974188 4.974188 4.974188 4.974188 4.974188 4.974188 4.974188 4.974188 4.974188 4.974188 5.105088 5.105088 5.105088 5.105088 5.105088 5.105088 5.105088 5.105088 5.105088 5.105088 5.105088 5.105088 5.105088 5.105088 5.105088 5.105088 5.105088 5.105088 5.105088 5.105088 5.105088 5.105088 5.105088 5.105088 5.235988 5.235988 5.235988 5.235988 5.235988 5.235988 5.235988 5.235988 5.235988 5.235988 5.235988 5.235988 5.235988 5.235988 5.235988 5.235988 5.235988 5.235988 5.235988 5.235988 5.235988 5.235988 5.235988 5.235988 5.366887 5.366887 5.366887 5.366887 5.366887 5.366887 5.366887 5.366887 5.366887 5.366887 5.366887 5.366887 5.366887 5.366887 5.366887 5.366887 5.366887 5.366887 5.366887 5.366887 5.366887 5.366887 5.366887 5.366887 5.497787 5.497787 5.497787 5.497787 5.497787 5.497787 5.497787 5.497787 5.497787 5.497787 5.497787 5.497787 5.497787 5.497787 5.497787 5.497787 5.497787 5.497787 5.497787 5.497787 5.497787 5.497787 5.497787 5.497787 5.628687 5.628687 5.628687 5.628687 5.628687 5.628687 5.628687 5.628687 5.628687 5.628687 5.628687 5.628687 5.628687 5.628687 5.628687 5.628687 5.628687 5.628687 5.628687 5.628687 5.628687 5.628687 5.628687 5.628687 5.759587 5.759587 5.759587 5.759587 5.759587 5.759587 5.759587 5.759587 5.759587 5.759587 5.759587 5.759587 5.759587 5.759587 5.759587 5.759587 5.759587 5.759587 5.759587 5.759587 5.759587 5.759587 5.759587 5.759587 5.890486 5.890486 5.890486 5.890486 5.890486 5.890486 5.890486 5.890486 5.890486 5.890486 5.890486 5.890486 5.890486 5.890486 5.890486 5.890486 5.890486 5.890486 5.890486 5.890486 5.890486 5.890486 5.890486 5.890486 6.021386 6.021386 6.021386 6.021386 6.021386 6.021386 6.021386 6.021386 6.021386 6.021386 6.021386 6.021386 6.021386 6.021386 6.021386 6.021386 6.021386 6.021386 6.021386 6.021386 6.021386 6.021386 6.021386 6.021386 6.152286 6.152286 6.152286 6.152286 6.152286 6.152286 6.152286 6.152286 6.152286 6.152286 6.152286 6.152286 6.152286 6.152286 6.152286 6.152286 6.152286 6.152286 6.152286 6.152286 6.152286 6.152286 6.152286 6.152286
        </DataArray>
      </PointData>
    </Piece>
  </PolyData>
</VTKFile>
